999
Inkscape export via OpenSCAD DXF Export
  0
SECTION
  2
HEADER
  9
$ACADVER
  1
AC1014
  9
$HANDSEED
  5
FFFF
  9
$MEASUREMENT
 70
     1
  0
ENDSEC
  0
SECTION
  2
TABLES
  0
TABLE
  2
VPORT
  5
8
330
0
100
AcDbSymbolTable
 70
     4
  0
VPORT
  5
2E
330
8
100
AcDbSymbolTableRecord
100
AcDbViewportTableRecord
  2
*ACTIVE
 70
     0
 10
0.0
 20
0.0
 11
1.0
 21
1.0
 12
210.0
 22
148.5
 13
0.0
 23
0.0
 14
10.0
 24
10.0
 15
10.0
 25
10.0
 16
0.0
 26
0.0
 36
1.0
 17
0.0
 27
0.0
 37
0.0
 40
341.0
 41
1.24
 42
50.0
 43
0.0
 44
0.0
 50
0.0
 51
0.0
 71
     0
 72
   100
 73
     1
 74
     3
 75
     0
 76
     0
 77
     0
 78
     0
  0
ENDTAB
  0
TABLE
  2
LTYPE
  5
5
330
0
100
AcDbSymbolTable
 70
     1
  0
LTYPE
  5
14
330
5
100
AcDbSymbolTableRecord
100
AcDbLinetypeTableRecord
  2
BYBLOCK
 70
     0
  3

 72
    65
 73
     0
 40
0.0
  0
LTYPE
  5
15
330
5
100
AcDbSymbolTableRecord
100
AcDbLinetypeTableRecord
  2
BYLAYER
 70
     0
  3

 72
    65
 73
     0
 40
0.0
  0
LTYPE
  5
16
330
5
100
AcDbSymbolTableRecord
100
AcDbLinetypeTableRecord
  2
CONTINUOUS
 70
     0
  3
Solid line
 72
    65
 73
     0
 40
0.0
  0
ENDTAB
  0
TABLE
0
TABLE
2
LAYER
5
2
330
0
100
AcDbSymbolTable
70
1
0
LAYER
5
10
330
2
100
AcDbSymbolTableRecord
100
AcDbLayerTableRecord
2
Layer_1
70
0
62
7
6
CONTINUOUS
0
ENDTAB
0
ENDSEC
  0
ENDTAB
  0
TABLE
  2
STYLE
  5
3
330
0
100
AcDbSymbolTable
 70
     1
  0
STYLE
  5
11
330
3
100
AcDbSymbolTableRecord
100
AcDbTextStyleTableRecord
  2
STANDARD
 70
     0
 40
0.0
 41
1.0
 50
0.0
 71
     0
 42
2.5
  3
txt
  4

  0
ENDTAB
  0
TABLE
  2
VIEW
  5
6
330
0
100
AcDbSymbolTable
 70
     0
  0
ENDTAB
  0
TABLE
  2
UCS
  5
7
330
0
100
AcDbSymbolTable
 70
     0
  0
ENDTAB
  0
TABLE
  2
APPID
  5
9
330
0
100
AcDbSymbolTable
 70
     2
  0
APPID
  5
12
330
9
100
AcDbSymbolTableRecord
100
AcDbRegAppTableRecord
  2
ACAD
 70
     0
  0
ENDTAB
  0
TABLE
  2
DIMSTYLE
  5
A
330
0
100
AcDbSymbolTable
 70
     1
  0
DIMSTYLE
105
27
330
A
100
AcDbSymbolTableRecord
100
AcDbDimStyleTableRecord
  2
ISO-25
 70
     0
  3

  4

  5

  6

  7

 40
1.0
 41
2.5
 42
0.625
 43
3.75
 44
1.25
 45
0.0
 46
0.0
 47
0.0
 48
0.0
140
2.5
141
2.5
142
0.0
143
0.03937007874016
144
1.0
145
0.0
146
1.0
147
0.625
 71
     0
 72
     0
 73
     0
 74
     0
 75
     0
 76
     0
 77
     1
 78
     8
170
     0
171
     3
172
     1
173
     0
174
     0
175
     0
176
     0
177
     0
178
     0
270
     2
271
     2
272
     2
273
     2
274
     3
340
11
275
     0
280
     0
281
     0
282
     0
283
     0
284
     8
285
     0
286
     0
287
     3
288
     0
  0
ENDTAB
  0
TABLE
  2
BLOCK_RECORD
  5
1
330
0
100
AcDbSymbolTable
 70
     1
  0
BLOCK_RECORD
  5
1F
330
1
100
AcDbSymbolTableRecord
100
AcDbBlockTableRecord
  2
*MODEL_SPACE
  0
BLOCK_RECORD
  5
1B
330
1
100
AcDbSymbolTableRecord
100
AcDbBlockTableRecord
  2
*PAPER_SPACE
  0
ENDTAB
  0
ENDSEC
  0
SECTION
  2
BLOCKS
  0
BLOCK
  5
20
330
1F
100
AcDbEntity
  8
0
100
AcDbBlockBegin
  2
*MODEL_SPACE
 70
     0
 10
0.0
 20
0.0
 30
0.0
  3
*MODEL_SPACE
  1

  0
ENDBLK
  5
21
330
1F
100
AcDbEntity
  8
0
100
AcDbBlockEnd
  0
BLOCK
  5
1C
330
1B
100
AcDbEntity
 67
     1
  8
0
100
AcDbBlockBegin
  2
*PAPER_SPACE
  1

  0
ENDBLK
  5
1D
330
1B
100
AcDbEntity
 67
     1
  8
0
100
AcDbBlockEnd
  0
ENDSEC
  0
SECTION
  2
ENTITIES
0
DIMENSION
5
83
100
AcDbEntity
62
256
370
-1
6
ByLayer
1
total_width
3
Standard
70
0
71
5
72
1
41
1.0
100
AcDbAlignedDimension
13
4.419512
23
0.000000
33
0.0
14
69.985821
24
0.000000
34
0.0
50
0.000000
100
AcDbRotatedDimension
0
DIMENSION
5
83
100
AcDbEntity
62
256
370
-1
6
ByLayer
1
total_minx
3
Standard
70
0
71
5
72
1
41
1.0
100
AcDbAlignedDimension
13
4.419512
23
0.000000
33
0.0
14
0.000000
24
0.000000
34
0.0
50
0.000000
100
AcDbRotatedDimension
0
DIMENSION
5
83
100
AcDbEntity
62
256
370
-1
6
ByLayer
1
total_maxx
3
Standard
70
0
71
5
72
1
41
1.0
100
AcDbAlignedDimension
13
0.000000
23
0.000000
33
0.0
14
69.985821
24
0.000000
34
0.0
50
0.000000
100
AcDbRotatedDimension
0
DIMENSION
5
83
100
AcDbEntity
62
256
370
-1
6
ByLayer
1
total_height
3
Standard
70
0
71
5
72
1
41
1.0
100
AcDbAlignedDimension
13
0.000000
23
0.461205
33
0.0
14
0.000000
24
80.450900
34
0.0
50
90.000000
100
AcDbRotatedDimension
0
DIMENSION
5
83
100
AcDbEntity
62
256
370
-1
6
ByLayer
1
total_miny
3
Standard
70
0
71
5
72
1
41
1.0
100
AcDbAlignedDimension
13
0.461205
23
0.000000
33
0.0
14
0.000000
24
0.000000
34
0.0
50
0.000000
100
AcDbRotatedDimension
0
DIMENSION
5
83
100
AcDbEntity
62
256
370
-1
6
ByLayer
1
total_maxy
3
Standard
70
0
71
5
72
1
41
1.0
100
AcDbAlignedDimension
13
0.000000
23
0.000000
33
0.0
14
80.450900
24
0.000000
34
0.0
50
0.000000
100
AcDbRotatedDimension
0
DIMENSION
8
Layer_1
5
83
100
AcDbEntity
62
256
370
-1
6
ByLayer
1
Layer_1_width
3
Standard
70
0
71
5
72
1
41
1.0
100
AcDbAlignedDimension
13
4.419512
23
0.000000
33
0.0
14
69.985821
24
0.000000
34
0.0
50
0.000000
100
AcDbRotatedDimension
0
DIMENSION
8
Layer_1
5
83
100
AcDbEntity
62
256
370
-1
6
ByLayer
1
Layer_1_minx
3
Standard
70
0
71
5
72
1
41
1.0
100
AcDbAlignedDimension
13
4.419512
23
0.000000
33
0.0
14
0.000000
24
0.000000
34
0.0
50
0.000000
100
AcDbRotatedDimension
0
DIMENSION
8
Layer_1
5
83
100
AcDbEntity
62
256
370
-1
6
ByLayer
1
Layer_1_maxx
3
Standard
70
0
71
5
72
1
41
1.0
100
AcDbAlignedDimension
13
0.000000
23
0.000000
33
0.0
14
69.985821
24
0.000000
34
0.0
50
0.000000
100
AcDbRotatedDimension
0
DIMENSION
8
Layer_1
5
83
100
AcDbEntity
62
256
370
-1
6
ByLayer
1
Layer_1_height
3
Standard
70
0
71
5
72
1
41
1.0
100
AcDbAlignedDimension
13
0.000000
23
0.461205
33
0.0
14
0.000000
24
80.450900
34
0.0
50
90.000000
100
AcDbRotatedDimension
0
DIMENSION
8
Layer_1
5
83
100
AcDbEntity
62
256
370
-1
6
ByLayer
1
Layer_1_miny
3
Standard
70
0
71
5
72
1
41
1.0
100
AcDbAlignedDimension
13
0.461205
23
0.000000
33
0.0
14
0.000000
24
0.000000
34
0.0
50
0.000000
100
AcDbRotatedDimension
0
DIMENSION
8
Layer_1
5
83
100
AcDbEntity
62
256
370
-1
6
ByLayer
1
Layer_1_maxy
3
Standard
70
0
71
5
72
1
41
1.0
100
AcDbAlignedDimension
13
0.000000
23
0.000000
33
0.0
14
80.450900
24
0.000000
34
0.0
50
0.000000
100
AcDbRotatedDimension
62
0
0
LWPOLYLINE
100
AcDbPolyline
8
Layer_1
90
285
70
0
10
22.075333
20
0.582608
30
0.0
10
20.814446
20
0.991431
30
0.0
10
19.725140
20
1.625202
30
0.0
10
18.905790
20
2.410767
30
0.0
10
18.454776
20
3.274969
30
0.0
10
18.327465
20
4.209947
30
0.0
10
18.508044
20
4.714497
30
0.0
10
18.654913
20
4.916993
30
0.0
10
18.688666
20
5.420072
30
0.0
10
18.737811
20
5.982713
30
0.0
10
18.959347
20
6.439662
30
0.0
10
19.365747
20
6.918562
30
0.0
10
19.501466
20
7.173206
30
0.0
10
19.764802
20
7.733582
30
0.0
10
20.196389
20
8.162200
30
0.0
10
20.608661
20
8.609714
30
0.0
10
21.680940
20
9.841272
30
0.0
10
21.994657
20
10.103014
30
0.0
10
22.207946
20
10.495263
30
0.0
10
22.391422
20
10.765341
30
0.0
10
22.567893
20
11.103987
30
0.0
10
22.442383
20
11.462055
30
0.0
10
22.254584
20
11.834357
30
0.0
10
22.034184
20
12.099050
30
0.0
10
21.339530
20
12.609457
30
0.0
10
20.807141
20
13.119865
30
0.0
10
20.192918
20
13.128755
30
0.0
10
19.614464
20
13.186516
30
0.0
10
19.230876
20
13.510582
30
0.0
10
18.780034
20
14.278226
30
0.0
10
18.592529
20
14.950271
30
0.0
10
18.508044
20
15.458505
30
0.0
10
18.372577
20
15.801817
30
0.0
10
18.237111
20
16.038652
30
0.0
10
17.873631
20
16.163061
30
0.0
10
17.467933
20
16.019313
30
0.0
10
17.278823
20
15.353101
30
0.0
10
17.298186
20
14.993302
30
0.0
10
17.685004
20
14.574715
30
0.0
10
18.070103
20
14.153811
30
0.0
10
18.146800
20
13.771835
30
0.0
10
18.016933
20
13.295195
30
0.0
10
17.466225
20
13.182795
30
0.0
10
17.014538
20
13.239631
30
0.0
10
16.603754
20
13.487948
30
0.0
10
15.437466
20
14.048376
30
0.0
10
14.556933
20
14.386461
30
0.0
10
14.444044
20
14.895768
30
0.0
10
14.622124
20
15.481123
30
0.0
10
15.366311
20
15.621195
30
0.0
10
15.863967
20
15.652461
30
0.0
10
16.005501
20
15.801817
30
0.0
10
15.982463
20
15.976025
30
0.0
10
15.798711
20
15.846973
30
0.0
10
15.301336
20
15.711728
30
0.0
10
14.803571
20
15.848948
30
0.0
10
14.746988
20
16.605840
30
0.0
10
14.669454
20
17.337318
30
0.0
10
14.527427
20
18.059630
30
0.0
10
14.669821
20
18.781990
30
0.0
10
14.805287
20
19.454639
30
0.0
10
14.844202
20
19.947118
30
0.0
10
15.014308
20
20.211226
30
0.0
10
15.480916
20
20.407590
30
0.0
10
15.714629
20
20.425352
30
0.0
10
15.631007
20
20.470866
30
0.0
10
14.702018
20
20.598511
30
0.0
10
13.044221
20
20.822206
30
0.0
10
10.433521
20
21.052031
30
0.0
10
9.126182
20
20.768835
30
0.0
10
8.709287
20
20.678524
30
0.0
10
8.298340
20
20.588213
30
0.0
10
7.929901
20
20.657447
30
0.0
10
7.527021
20
20.905896
30
0.0
10
7.089031
20
21.172338
30
0.0
10
6.534333
20
21.164513
30
0.0
10
5.828080
20
21.213132
30
0.0
10
5.635015
20
21.996485
30
0.0
10
5.611634
20
22.574783
30
0.0
10
5.718824
20
22.834724
30
0.0
10
5.816039
20
22.997532
30
0.0
10
5.684598
20
23.161419
30
0.0
10
5.501054
20
23.691051
30
0.0
10
5.634597
20
24.197245
30
0.0
10
5.711762
20
24.886576
30
0.0
10
5.701668
20
25.366908
30
0.0
10
5.809236
20
25.652867
30
0.0
10
6.075145
20
25.790601
30
0.0
10
6.540073
20
25.826257
30
0.0
10
7.672815
20
25.622508
30
0.0
10
8.580932
20
25.231536
30
0.0
10
8.802987
20
25.127941
30
0.0
10
9.019656
20
25.453800
30
0.0
10
9.533864
20
25.996363
30
0.0
10
10.305292
20
26.187502
30
0.0
10
10.739040
20
26.132638
30
0.0
10
11.076640
20
25.848835
30
0.0
10
11.391197
20
25.510168
30
0.0
10
11.348514
20
24.719946
30
0.0
10
11.305831
20
23.929724
30
0.0
10
11.824033
20
23.929724
30
0.0
10
12.783539
20
23.848929
30
0.0
10
14.218265
20
23.714450
30
0.0
10
15.019967
20
23.687546
30
0.0
10
14.860254
20
23.794937
30
0.0
10
13.477438
20
24.675839
30
0.0
10
12.418164
20
25.826257
30
0.0
10
11.729640
20
27.722790
30
0.0
10
11.652793
20
29.242307
30
0.0
10
11.787279
20
30.748213
30
0.0
10
12.038946
20
31.588666
30
0.0
10
12.653477
20
32.342650
30
0.0
10
13.649733
20
33.474175
30
0.0
10
14.236951
20
34.087265
30
0.0
10
14.670216
20
34.330462
30
0.0
10
14.800834
20
34.411889
30
0.0
10
14.769416
20
34.668084
30
0.0
10
14.039700
20
36.257190
30
0.0
10
13.096050
20
38.244035
30
0.0
10
12.869960
20
38.637906
30
0.0
10
12.546684
20
38.867430
30
0.0
10
12.002579
20
39.262796
30
0.0
10
11.940472
20
39.926833
30
0.0
10
12.033442
20
40.431705
30
0.0
10
12.269218
20
40.761914
30
0.0
10
12.612022
20
41.001322
30
0.0
10
13.230755
20
41.074673
30
0.0
10
13.841241
20
41.069444
30
0.0
10
14.143216
20
40.895806
30
0.0
10
14.332965
20
40.609123
30
0.0
10
14.331989
20
39.967800
30
0.0
10
14.343896
20
39.257855
30
0.0
10
14.579518
20
38.567978
30
0.0
10
15.271531
20
37.115146
30
0.0
10
16.171261
20
35.377885
30
0.0
10
16.250265
20
35.037497
30
0.0
10
16.294971
20
34.899291
30
0.0
10
16.498621
20
34.922370
30
0.0
10
17.917367
20
34.979626
30
0.0
10
19.514583
20
34.857964
30
0.0
10
20.341510
20
34.605016
30
0.0
10
20.809113
20
34.318516
30
0.0
10
21.458791
20
33.933404
30
0.0
10
22.053536
20
33.547014
30
0.0
10
22.651149
20
32.735057
30
0.0
10
23.249376
20
31.831946
30
0.0
10
23.743352
20
31.859942
30
0.0
10
24.348036
20
31.979811
30
0.0
10
24.568067
20
32.560181
30
0.0
10
24.843914
20
33.199375
30
0.0
10
24.992741
20
33.550278
30
0.0
10
24.644135
20
33.912310
30
0.0
10
24.109741
20
34.535672
30
0.0
10
23.843874
20
34.988226
30
0.0
10
23.746089
20
35.571199
30
0.0
10
23.907118
20
36.238873
30
0.0
10
24.606212
20
36.392666
30
0.0
10
25.081842
20
36.350195
30
0.0
10
25.374435
20
36.164258
30
0.0
10
25.612846
20
35.935847
30
0.0
10
26.037528
20
36.819013
30
0.0
10
27.110509
20
38.740755
30
0.0
10
27.504463
20
39.327777
30
0.0
10
28.004081
20
39.354419
30
0.0
10
28.618778
20
39.242407
30
0.0
10
28.782554
20
38.507044
30
0.0
10
28.714392
20
37.793910
30
0.0
10
28.696810
20
37.657007
30
0.0
10
28.848665
20
37.747318
30
0.0
10
29.474914
20
37.835585
30
0.0
10
30.140114
20
37.729256
30
0.0
10
30.244722
20
37.264051
30
0.0
10
30.159954
20
36.579477
30
0.0
10
29.822459
20
36.010921
30
0.0
10
29.573494
20
35.751059
30
0.0
10
30.183438
20
35.813548
30
0.0
10
30.960597
20
35.737800
30
0.0
10
31.110228
20
35.512206
30
0.0
10
31.151599
20
35.125177
30
0.0
10
31.092094
20
34.715968
30
0.0
10
30.767776
20
34.384499
30
0.0
10
29.507016
20
33.683485
30
0.0
10
29.420507
20
33.153991
30
0.0
10
29.407522
20
32.676860
30
0.0
10
29.205126
20
32.431338
30
0.0
10
28.497818
20
32.237347
30
0.0
10
27.697198
20
32.180375
30
0.0
10
27.415024
20
32.089911
30
0.0
10
27.358531
20
31.861684
30
0.0
10
27.177909
20
31.244918
30
0.0
10
27.007566
20
30.721578
30
0.0
10
27.180449
20
30.314110
30
0.0
10
27.520581
20
29.671222
30
0.0
10
27.629600
20
28.875948
30
0.0
10
27.574322
20
28.319710
30
0.0
10
27.301663
20
27.811891
30
0.0
10
26.696926
20
27.022874
30
0.0
10
26.552789
20
26.729363
30
0.0
10
27.165409
20
26.413274
30
0.0
10
27.705216
20
26.096000
30
0.0
10
29.083629
20
24.903760
30
0.0
10
29.217372
20
24.056467
30
0.0
10
29.237171
20
23.427608
30
0.0
10
29.085176
20
23.170656
30
0.0
10
28.893956
20
22.917339
30
0.0
10
27.734361
20
21.429890
30
0.0
10
26.210460
20
20.628692
30
0.0
10
24.926789
20
20.001185
30
0.0
10
24.923515
20
19.532383
30
0.0
10
25.033144
20
18.990516
30
0.0
10
26.332670
20
18.938740
30
0.0
10
27.476943
20
18.896584
30
0.0
10
27.663437
20
18.774080
30
0.0
10
27.733825
20
18.544258
30
0.0
10
27.772700
20
18.429607
30
0.0
10
27.954489
20
18.457769
30
0.0
10
29.454704
20
19.220857
30
0.0
10
31.271193
20
20.204385
30
0.0
10
32.087089
20
20.407585
30
0.0
10
32.615731
20
20.321509
30
0.0
10
32.777323
20
20.039914
30
0.0
10
32.874921
20
19.909311
30
0.0
10
33.220079
20
19.830254
30
0.0
10
34.533815
20
19.325118
30
0.0
10
35.772118
20
18.633369
30
0.0
10
36.138132
20
18.382880
30
0.0
10
36.385867
20
18.093758
30
0.0
10
37.131267
20
17.320595
30
0.0
10
38.151644
20
16.523772
30
0.0
10
38.985139
20
16.507037
30
0.0
10
40.564695
20
16.706136
30
0.0
10
41.848727
20
16.934403
30
0.0
10
42.415130
20
17.066125
30
0.0
10
43.141488
20
17.246747
30
0.0
10
44.078766
20
17.425335
30
0.0
10
44.704694
20
17.284260
30
0.0
10
44.860597
20
16.627351
30
0.0
10
44.823569
20
16.070290
30
0.0
10
44.425390
20
15.302859
30
0.0
10
43.832904
20
14.271546
30
0.0
10
42.770100
20
13.171620
30
0.0
10
41.696990
20
12.369902
30
0.0
10
41.243004
20
12.197388
30
0.0
10
39.234564
20
11.603967
30
0.0
10
37.962381
20
11.645074
30
0.0
10
36.982519
20
11.831337
30
0.0
10
36.714975
20
11.918346
30
0.0
10
36.123437
20
12.355198
30
0.0
10
35.494569
20
12.891385
30
0.0
10
34.787823
20
13.002079
30
0.0
10
34.296289
20
13.049635
30
0.0
10
33.969085
20
13.299892
30
0.0
10
33.680434
20
13.751447
30
0.0
10
33.535487
20
13.905190
30
0.0
10
32.977966
20
14.183637
30
0.0
10
32.287532
20
14.461942
30
0.0
10
30.474392
20
14.268317
30
0.0
10
30.090158
20
14.103471
30
0.0
10
29.299936
20
13.675185
30
0.0
10
28.890341
20
13.352523
30
0.0
10
28.803637
20
13.055041
30
0.0
10
28.705627
20
12.234141
30
0.0
10
28.536995
20
11.702601
30
0.0
10
28.121039
20
11.166277
30
0.0
10
27.225624
20
9.906985
30
0.0
10
26.887710
20
9.218971
30
0.0
10
26.816791
20
8.657412
30
0.0
10
26.776878
20
8.189067
30
0.0
10
26.568436
20
7.972507
30
0.0
10
25.687903
20
7.270516
30
0.0
10
24.911645
20
6.635146
30
0.0
10
23.139112
20
5.301240
30
0.0
10
22.667478
20
4.919850
30
0.0
10
23.139112
20
4.440868
30
0.0
10
24.068448
20
3.721271
30
0.0
10
25.055725
20
3.331060
30
0.0
10
26.342658
20
2.950221
30
0.0
10
26.455547
20
2.381766
30
0.0
10
26.382681
20
1.890093
30
0.0
10
25.923078
20
1.354246
30
0.0
10
25.218652
20
0.810079
30
0.0
10
24.952265
20
0.715651
30
0.0
10
22.933411
20
0.461205
30
0.0
10
22.075456
20
0.582526
30
0.0
10
22.075333
20
0.582608
30
0.0
62
0
0
LWPOLYLINE
100
AcDbPolyline
8
Layer_1
90
25
70
0
10
21.075044
20
5.427215
30
0.0
10
23.213929
20
7.293943
30
0.0
10
24.363569
20
8.174476
30
0.0
10
25.116513
20
8.757539
30
0.0
10
24.765454
20
8.757539
30
0.0
10
24.308266
20
8.888135
30
0.0
10
24.197645
20
9.427873
30
0.0
10
24.178061
20
9.790313
30
0.0
10
24.057056
20
9.680744
30
0.0
10
23.560345
20
9.480028
30
0.0
10
23.204222
20
9.376122
30
0.0
10
22.684933
20
8.764318
30
0.0
10
21.854742
20
7.807065
30
0.0
10
21.277368
20
7.076580
30
0.0
10
20.884392
20
6.861006
30
0.0
10
20.722419
20
6.817476
30
0.0
10
20.675511
20
6.667170
30
0.0
10
20.269111
20
6.038864
30
0.0
10
19.883200
20
5.455556
30
0.0
10
19.988461
20
5.062847
30
0.0
10
20.226441
20
4.687539
30
0.0
10
20.338671
20
4.416592
30
0.0
10
20.567956
20
4.758264
30
0.0
10
21.075044
20
5.427215
30
0.0
10
21.075044
20
5.427215
30
0.0
62
0
0
LWPOLYLINE
100
AcDbPolyline
8
Layer_1
90
8
70
0
10
24.204455
20
11.767117
30
0.0
10
24.107334
20
12.036465
30
0.0
10
23.964479
20
12.153869
30
0.0
10
23.738701
20
12.099050
30
0.0
10
23.700420
20
11.632957
30
0.0
10
24.023319
20
11.629147
30
0.0
10
24.204455
20
11.767109
30
0.0
10
24.204455
20
11.767117
30
0.0
62
0
0
LWPOLYLINE
100
AcDbPolyline
8
Layer_1
90
8
70
0
10
27.388757
20
12.280714
30
0.0
10
27.433913
20
12.524432
30
0.0
10
27.320968
20
12.630075
30
0.0
10
26.816667
20
12.406263
30
0.0
10
26.229645
20
12.112811
30
0.0
10
26.771512
20
12.162542
30
0.0
10
27.388757
20
12.280714
30
0.0
10
27.388757
20
12.280714
30
0.0
62
0
0
LWPOLYLINE
100
AcDbPolyline
8
Layer_1
90
35
70
0
10
25.353639
20
13.363090
30
0.0
10
25.788091
20
13.560216
30
0.0
10
26.257698
20
13.823561
30
0.0
10
27.149740
20
14.229723
30
0.0
10
27.703127
20
14.447139
30
0.0
10
27.898239
20
14.580004
30
0.0
10
29.710151
20
15.582293
30
0.0
10
30.463939
20
16.061329
30
0.0
10
30.553796
20
16.230599
30
0.0
10
30.234633
20
16.337971
30
0.0
10
29.448594
20
16.635060
30
0.0
10
29.181301
20
17.047755
30
0.0
10
29.123512
20
17.283478
30
0.0
10
28.955523
20
17.285168
30
0.0
10
28.351957
20
16.917757
30
0.0
10
27.607807
20
16.454566
30
0.0
10
27.269140
20
16.148502
30
0.0
10
27.008050
20
15.783982
30
0.0
10
26.633643
20
15.530872
30
0.0
10
26.153341
20
15.259939
30
0.0
10
25.734720
20
15.042684
30
0.0
10
25.263765
20
14.989006
30
0.0
10
24.676957
20
15.087685
30
0.0
10
24.368587
20
15.074138
30
0.0
10
23.342890
20
14.767732
30
0.0
10
22.526888
20
14.573549
30
0.0
10
22.497871
20
14.261990
30
0.0
10
22.392106
20
13.871758
30
0.0
10
22.719413
20
13.578247
30
0.0
10
23.183120
20
13.405761
30
0.0
10
23.830121
20
13.363408
30
0.0
10
24.650123
20
13.226830
30
0.0
10
24.864381
20
13.165404
30
0.0
10
25.353639
20
13.363092
30
0.0
10
25.353639
20
13.363090
30
0.0
62
0
0
LWPOLYLINE
100
AcDbPolyline
8
Layer_1
90
33
70
0
10
38.602262
20
13.724650
30
0.0
10
38.873196
20
13.793591
30
0.0
10
38.552591
20
13.804288
30
0.0
10
38.123614
20
13.923346
30
0.0
10
38.018235
20
14.447150
30
0.0
10
38.123614
20
14.970955
30
0.0
10
38.140985
20
15.056751
30
0.0
10
37.903545
20
15.079328
30
0.0
10
37.424162
20
15.223214
30
0.0
10
36.723454
20
15.664341
30
0.0
10
34.579879
20
17.495150
30
0.0
10
33.972396
20
17.944441
30
0.0
10
33.823347
20
17.912445
30
0.0
10
33.743051
20
17.718532
30
0.0
10
33.463208
20
17.194987
30
0.0
10
32.848115
20
16.773457
30
0.0
10
31.621484
20
16.336318
30
0.0
10
31.377379
20
16.328952
30
0.0
10
31.663976
20
16.203414
30
0.0
10
32.007974
20
15.985002
30
0.0
10
32.370801
20
15.892131
30
0.0
10
32.732046
20
15.801820
30
0.0
10
33.042406
20
15.711509
30
0.0
10
33.405544
20
15.580659
30
0.0
10
33.845579
20
15.342478
30
0.0
10
35.147865
20
14.734357
30
0.0
10
35.305910
20
14.387999
30
0.0
10
35.353037
20
14.219562
30
0.0
10
35.536175
20
14.176220
30
0.0
10
36.055464
20
14.021918
30
0.0
10
37.305029
20
13.715524
30
0.0
10
38.602262
20
13.724664
30
0.0
10
38.602262
20
13.724650
30
0.0
62
0
0
LWPOLYLINE
100
AcDbPolyline
8
Layer_1
90
35
70
0
10
22.130645
20
17.250458
30
0.0
10
23.271955
20
17.992440
30
0.0
10
23.686136
20
18.472634
30
0.0
10
23.746089
20
19.028568
30
0.0
10
23.665992
20
19.754142
30
0.0
10
23.291004
20
20.543139
30
0.0
10
22.920893
20
21.310783
30
0.0
10
22.718072
20
21.728738
30
0.0
10
22.495427
20
22.064708
30
0.0
10
22.391422
20
21.959008
30
0.0
10
22.674331
20
21.507176
30
0.0
10
22.906331
20
21.202979
30
0.0
10
22.913654
20
20.776966
30
0.0
10
22.736749
20
20.177297
30
0.0
10
22.227961
20
20.064657
30
0.0
10
21.834857
20
20.157868
30
0.0
10
21.629299
20
20.497983
30
0.0
10
21.419583
20
20.867401
30
0.0
10
21.017837
20
21.469409
30
0.0
10
20.679170
20
21.895545
30
0.0
10
20.585200
20
22.184603
30
0.0
10
20.548082
20
22.363446
30
0.0
10
20.382000
20
22.361130
30
0.0
10
19.953022
20
22.305532
30
0.0
10
19.727244
20
22.304403
30
0.0
10
19.755243
20
20.610977
30
0.0
10
19.810264
20
19.138428
30
0.0
10
19.970455
20
18.525558
30
0.0
10
20.109917
20
18.106543
30
0.0
10
20.102352
20
17.604322
30
0.0
10
20.047034
20
17.075077
30
0.0
10
20.564472
20
17.042548
30
0.0
10
21.272691
20
16.992939
30
0.0
10
22.130646
20
17.250469
30
0.0
10
22.130645
20
17.250458
30
0.0
62
0
0
LWPOLYLINE
100
AcDbPolyline
8
Layer_1
90
10
70
0
10
22.409484
20
18.709823
30
0.0
10
22.304205
20
19.188472
30
0.0
10
22.409484
20
19.667121
30
0.0
10
22.888133
20
19.775495
30
0.0
10
23.356332
20
19.656672
30
0.0
10
23.475155
20
19.188472
30
0.0
10
23.356332
20
18.720274
30
0.0
10
22.888133
20
18.601450
30
0.0
10
22.409484
20
18.709823
30
0.0
10
22.409484
20
18.709823
30
0.0
62
0
0
LWPOLYLINE
100
AcDbPolyline
8
Layer_1
90
12
70
0
10
31.498656
20
17.757654
30
0.0
10
31.936498
20
17.969275
30
0.0
10
32.046813
20
18.095790
30
0.0
10
31.685636
20
18.079240
30
0.0
10
31.075559
20
18.182136
30
0.0
10
30.887971
20
18.279637
30
0.0
10
30.582339
20
18.158937
30
0.0
10
30.349580
20
18.007777
30
0.0
10
30.362364
20
17.901313
30
0.0
10
31.137411
20
17.660710
30
0.0
10
31.498656
20
17.757640
30
0.0
10
31.498656
20
17.757654
30
0.0
62
0
0
LWPOLYLINE
100
AcDbPolyline
8
Layer_1
90
13
70
0
10
26.139808
20
22.705500
30
0.0
10
26.780300
20
23.401057
30
0.0
10
26.995657
20
23.776734
30
0.0
10
26.980311
20
24.088367
30
0.0
10
26.570175
20
24.595867
30
0.0
10
25.749280
20
24.928559
30
0.0
10
25.234823
20
24.997088
30
0.0
10
25.275347
20
23.944368
30
0.0
10
25.356128
20
22.810493
30
0.0
10
25.318987
20
21.961306
30
0.0
10
25.548538
20
22.182266
30
0.0
10
26.139808
20
22.705500
30
0.0
10
26.139808
20
22.705500
30
0.0
62
0
0
LWPOLYLINE
100
AcDbPolyline
8
Layer_1
90
13
70
0
10
18.306464
20
24.561983
30
0.0
10
18.316976
20
24.742606
30
0.0
10
16.459492
20
25.612036
30
0.0
10
15.972195
20
25.825242
30
0.0
10
15.783978
20
25.472918
30
0.0
10
15.809735
20
25.142766
30
0.0
10
16.138153
20
24.931051
30
0.0
10
16.622856
20
24.742606
30
0.0
10
17.004262
20
24.611068
30
0.0
10
17.650088
20
24.445626
30
0.0
10
18.102497
20
24.396542
30
0.0
10
18.306464
20
24.561983
30
0.0
10
18.306464
20
24.561983
30
0.0
62
0
0
LWPOLYLINE
100
AcDbPolyline
8
Layer_1
90
6
70
0
10
19.546622
20
24.652295
30
0.0
10
19.456311
20
24.742606
30
0.0
10
19.366000
20
24.652295
30
0.0
10
19.456311
20
24.561983
30
0.0
10
19.546622
20
24.652295
30
0.0
10
19.546622
20
24.652295
30
0.0
62
0
0
LWPOLYLINE
100
AcDbPolyline
8
Layer_1
90
15
70
0
10
20.725175
20
25.170539
30
0.0
10
21.086419
20
25.405134
30
0.0
10
21.375422
20
25.629421
30
0.0
10
21.579217
20
25.851904
30
0.0
10
21.404010
20
26.162872
30
0.0
10
21.231159
20
26.197724
30
0.0
10
21.065343
20
25.936239
30
0.0
10
20.864905
20
25.651537
30
0.0
10
20.517466
20
25.572791
30
0.0
10
20.189965
20
25.508683
30
0.0
10
20.133644
20
25.269619
30
0.0
10
20.163557
20
25.059319
30
0.0
10
20.291689
20
25.062795
30
0.0
10
20.725175
20
25.170539
30
0.0
10
20.725175
20
25.170539
30
0.0
62
0
0
LWPOLYLINE
100
AcDbPolyline
8
Layer_1
90
16
70
0
10
24.504672
20
27.542250
30
0.0
10
24.838812
20
28.647336
30
0.0
10
24.913002
20
29.008581
30
0.0
10
24.890041
20
29.130161
30
0.0
10
24.808224
20
28.943831
30
0.0
10
24.521091
20
28.311653
30
0.0
10
24.306652
20
28.009047
30
0.0
10
24.003487
20
27.921207
30
0.0
10
23.708916
20
27.832463
30
0.0
10
23.613724
20
27.379340
30
0.0
10
23.511735
20
26.684295
30
0.0
10
23.766785
20
26.313977
30
0.0
10
24.062178
20
26.124281
30
0.0
10
24.157013
20
26.359132
30
0.0
10
24.504672
20
27.542250
30
0.0
10
24.504672
20
27.542250
30
0.0
62
0
0
LWPOLYLINE
100
AcDbPolyline
8
Layer_1
90
33
70
0
10
18.146800
20
26.774606
30
0.0
10
18.104613
20
26.951809
30
0.0
10
17.950711
20
27.000383
30
0.0
10
17.560326
20
27.186017
30
0.0
10
17.424311
20
27.718808
30
0.0
10
17.525515
20
28.217938
30
0.0
10
17.893929
20
28.355050
30
0.0
10
18.111052
20
28.416328
30
0.0
10
18.146800
20
28.788543
30
0.0
10
18.251216
20
29.303994
30
0.0
10
18.650515
20
29.438783
30
0.0
10
19.049911
20
29.574250
30
0.0
10
19.557680
20
29.709717
30
0.0
10
19.953022
20
29.709717
30
0.0
10
19.952949
20
30.138695
30
0.0
10
19.791709
20
30.982362
30
0.0
10
19.554241
20
31.347644
30
0.0
10
19.101916
20
31.245006
30
0.0
10
18.483401
20
31.064383
30
0.0
10
17.893275
20
30.883761
30
0.0
10
17.167494
20
30.633879
30
0.0
10
16.318000
20
30.001701
30
0.0
10
16.110874
20
29.707794
30
0.0
10
16.073314
20
29.173531
30
0.0
10
16.121502
20
28.628121
30
0.0
10
16.344248
20
28.268151
30
0.0
10
16.554174
20
27.941738
30
0.0
10
16.611511
20
27.578772
30
0.0
10
16.769555
20
27.149004
30
0.0
10
17.063066
20
27.010041
30
0.0
10
18.033911
20
26.554876
30
0.0
10
18.146800
20
26.774606
30
0.0
10
18.146800
20
26.774606
30
0.0
62
0
0
LWPOLYLINE
100
AcDbPolyline
8
Layer_1
90
6
70
0
10
21.137728
20
28.474839
30
0.0
10
20.946444
20
28.540275
30
0.0
10
21.103202
20
28.240542
30
0.0
10
21.293463
20
28.176906
30
0.0
10
21.137728
20
28.474839
30
0.0
10
21.137728
20
28.474839
30
0.0
62
0
0
LWPOLYLINE
100
AcDbPolyline
8
Layer_1
90
19
70
0
10
14.371795
20
29.258161
30
0.0
10
14.714977
20
29.258161
30
0.0
10
14.714977
20
29.924437
30
0.0
10
14.589580
20
30.694785
30
0.0
10
14.402840
20
31.289811
30
0.0
10
14.324587
20
31.689108
30
0.0
10
14.169780
20
31.673523
30
0.0
10
13.940854
20
31.305816
30
0.0
10
13.629288
20
30.899365
30
0.0
10
13.330908
20
30.525062
30
0.0
10
13.222755
20
30.093539
30
0.0
10
13.209991
20
29.927303
30
0.0
10
13.376871
20
29.890339
30
0.0
10
13.707865
20
29.762946
30
0.0
10
13.811867
20
29.357503
30
0.0
10
13.834444
20
29.129845
30
0.0
10
13.920240
20
29.149788
30
0.0
10
14.371795
20
29.258161
30
0.0
10
14.371795
20
29.258161
30
0.0
62
0
0
LWPOLYLINE
100
AcDbPolyline
8
Layer_1
90
14
70
0
10
21.978798
20
30.601926
30
0.0
10
21.606399
20
31.278486
30
0.0
10
21.271654
20
31.820352
30
0.0
10
20.956915
20
32.276807
30
0.0
10
20.761834
20
32.450653
30
0.0
10
20.911623
20
32.096185
30
0.0
10
21.106545
20
30.906339
30
0.0
10
21.151678
20
30.070961
30
0.0
10
21.438200
20
30.070961
30
0.0
10
21.900027
20
29.941591
30
0.0
10
22.051847
20
29.863363
30
0.0
10
22.105722
20
29.998422
30
0.0
10
21.978798
20
30.601926
30
0.0
10
21.978798
20
30.601926
30
0.0
62
0
0
LWPOLYLINE
100
AcDbPolyline
8
Layer_1
90
18
70
0
10
16.897598
20
32.029981
30
0.0
10
17.461940
20
32.137231
30
0.0
10
17.984138
20
32.220264
30
0.0
10
18.279793
20
32.328739
30
0.0
10
18.453098
20
32.425282
30
0.0
10
18.582645
20
32.826269
30
0.0
10
18.643005
20
33.413291
30
0.0
10
17.815294
20
33.496403
30
0.0
10
16.746977
20
33.356968
30
0.0
10
15.934177
20
33.079219
30
0.0
10
15.256844
20
32.842544
30
0.0
10
15.085180
20
32.753616
30
0.0
10
15.234718
20
32.711517
30
0.0
10
15.821740
20
32.230602
30
0.0
10
16.186542
20
31.867040
30
0.0
10
16.476045
20
31.840593
30
0.0
10
16.897598
20
32.029981
30
0.0
10
16.897598
20
32.029981
30
0.0
62
0
0
LWPOLYLINE
100
AcDbPolyline
8
Layer_1
90
41
70
0
10
8.422250
20
11.364730
30
0.0
10
7.764438
20
11.856539
30
0.0
10
7.483977
20
12.092531
30
0.0
10
7.148367
20
11.906363
30
0.0
10
6.626312
20
11.548378
30
0.0
10
6.014472
20
11.375387
30
0.0
10
5.430996
20
11.484935
30
0.0
10
5.326578
20
12.020590
30
0.0
10
5.459890
20
12.616081
30
0.0
10
5.530339
20
12.797871
30
0.0
10
5.256690
20
12.906606
30
0.0
10
4.776241
20
13.001659
30
0.0
10
4.506722
20
13.157970
30
0.0
10
4.419512
20
13.638403
30
0.0
10
4.577556
20
14.192058
30
0.0
10
5.249510
20
14.503618
30
0.0
10
6.161021
20
14.627761
30
0.0
10
6.767601
20
14.627761
30
0.0
10
6.767601
20
14.997371
30
0.0
10
6.996088
20
16.012968
30
0.0
10
7.383263
20
16.908117
30
0.0
10
7.986913
20
17.073166
30
0.0
10
8.585343
20
16.917007
30
0.0
10
8.709289
20
15.968912
30
0.0
10
8.709289
20
15.169967
30
0.0
10
8.952314
20
15.169786
30
0.0
10
9.245927
20
15.087764
30
0.0
10
9.746264
20
14.944056
30
0.0
10
10.452252
20
14.681275
30
0.0
10
10.650978
20
14.065343
30
0.0
10
10.592975
20
13.623316
30
0.0
10
10.281913
20
13.255275
30
0.0
10
9.644632
20
12.850549
30
0.0
10
9.376416
20
12.796907
30
0.0
10
9.607297
20
12.555917
30
0.0
10
9.794133
20
12.266228
30
0.0
10
9.838178
20
11.818645
30
0.0
10
9.729804
20
11.213987
30
0.0
10
9.151910
20
11.108273
30
0.0
10
8.422250
20
11.364716
30
0.0
10
8.422250
20
11.364730
30
0.0
62
0
0
LWPOLYLINE
100
AcDbPolyline
8
Layer_1
90
8
70
0
10
8.212579
20
13.544028
30
0.0
10
8.153563
20
13.687929
30
0.0
10
7.919068
20
13.722641
30
0.0
10
7.625556
20
13.720665
30
0.0
10
7.851334
20
13.544056
30
0.0
10
8.139675
20
13.375540
30
0.0
10
8.212579
20
13.544056
30
0.0
10
8.212579
20
13.544028
30
0.0
62
0
0
LWPOLYLINE
100
AcDbPolyline
8
Layer_1
90
7
70
0
10
7.425946
20
13.995583
30
0.0
10
7.253779
20
14.176206
30
0.0
10
7.128845
20
13.995583
30
0.0
10
7.301012
20
13.814961
30
0.0
10
7.424507
20
13.855031
30
0.0
10
7.425946
20
13.995583
30
0.0
10
7.425946
20
13.995583
30
0.0
62
0
0
LWPOLYLINE
100
AcDbPolyline
8
Layer_1
90
50
70
0
10
57.116040
20
28.103311
30
0.0
10
55.774959
20
28.674871
30
0.0
10
54.508310
20
29.504301
30
0.0
10
54.113342
20
29.735102
30
0.0
10
53.301381
20
29.425993
30
0.0
10
52.818611
20
29.258161
30
0.0
10
52.449657
20
29.066600
30
0.0
10
51.598680
20
28.828325
30
0.0
10
50.855779
20
28.919763
30
0.0
10
50.702972
20
29.129609
30
0.0
10
50.657399
20
29.475359
30
0.0
10
50.722579
20
29.839357
30
0.0
10
51.041221
20
30.181155
30
0.0
10
51.324262
20
30.458799
30
0.0
10
51.227838
20
30.519822
30
0.0
10
50.793616
20
30.831426
30
0.0
10
50.609059
20
31.164416
30
0.0
10
50.585822
20
31.573495
30
0.0
10
50.660396
20
31.964644
30
0.0
10
50.905370
20
32.202653
30
0.0
10
51.762403
20
32.521070
30
0.0
10
52.735971
20
32.689983
30
0.0
10
53.097196
20
32.825450
30
0.0
10
53.469498
20
32.960917
30
0.0
10
53.729374
20
33.052060
30
0.0
10
54.541474
20
34.992917
30
0.0
10
54.672224
20
35.354161
30
0.0
10
54.926058
20
35.817740
30
0.0
10
55.493378
20
35.941183
30
0.0
10
55.886035
20
35.902780
30
0.0
10
56.118482
20
35.714596
30
0.0
10
56.356295
20
34.451050
30
0.0
10
56.556655
20
33.051488
30
0.0
10
56.711935
20
32.824020
30
0.0
10
56.980574
20
32.696009
30
0.0
10
58.515862
20
31.978338
30
0.0
10
58.922262
20
31.775919
30
0.0
10
59.152627
20
31.591279
30
0.0
10
59.219990
20
31.188866
30
0.0
10
59.216672
20
30.818942
30
0.0
10
59.073064
20
30.596748
30
0.0
10
57.894672
20
30.269174
30
0.0
10
57.589570
20
30.206428
30
0.0
10
58.023399
20
29.723989
30
0.0
10
58.390488
20
29.240563
30
0.0
10
58.497716
20
28.753283
30
0.0
10
58.425664
20
28.129411
30
0.0
10
57.940840
20
28.006579
30
0.0
10
57.116040
20
28.103305
30
0.0
10
57.116040
20
28.103311
30
0.0
62
0
0
LWPOLYLINE
100
AcDbPolyline
8
Layer_1
90
20
70
0
10
55.996236
20
31.077143
30
0.0
10
56.167774
20
31.367744
30
0.0
10
55.829107
20
31.478468
30
0.0
10
55.380557
20
31.639994
30
0.0
10
55.264662
20
31.973224
30
0.0
10
55.174351
20
32.283583
30
0.0
10
55.084040
20
32.197379
30
0.0
10
54.731378
20
31.493361
30
0.0
10
54.248455
20
31.335595
30
0.0
10
53.751263
20
31.439863
30
0.0
10
53.506311
20
31.427869
30
0.0
10
53.411625
20
31.281441
30
0.0
10
53.520212
20
31.164873
30
0.0
10
54.361608
20
31.014345
30
0.0
10
55.075024
20
30.918679
30
0.0
10
55.462111
20
30.700449
30
0.0
10
55.725722
20
30.508485
30
0.0
10
55.793036
20
30.642732
30
0.0
10
55.996236
20
31.077131
30
0.0
10
55.996236
20
31.077143
30
0.0
62
0
0
LWPOLYLINE
100
AcDbPolyline
8
Layer_1
90
72
70
0
10
52.419862
20
42.616907
30
0.0
10
52.148929
20
42.777029
30
0.0
10
52.177067
20
43.942395
30
0.0
10
52.281446
20
45.340830
30
0.0
10
52.560598
20
46.698685
30
0.0
10
52.649089
20
48.732881
30
0.0
10
52.510176
20
50.630669
30
0.0
10
52.379058
20
51.358624
30
0.0
10
52.483083
20
51.908191
30
0.0
10
53.075232
20
52.018257
30
0.0
10
53.665120
20
51.857049
30
0.0
10
53.919531
20
50.967499
30
0.0
10
54.029760
20
49.161965
30
0.0
10
54.045479
20
47.887811
30
0.0
10
54.316413
20
47.976468
30
0.0
10
54.957035
20
48.161567
30
0.0
10
55.298101
20
48.318784
30
0.0
10
55.531560
20
48.704506
30
0.0
10
55.695354
20
49.222520
30
0.0
10
55.728706
20
49.967814
30
0.0
10
55.819997
20
50.903880
30
0.0
10
56.352917
20
51.023142
30
0.0
10
56.740507
20
50.978444
30
0.0
10
56.974037
20
50.785183
30
0.0
10
57.126566
20
50.444062
30
0.0
10
57.161213
20
49.751937
30
0.0
10
57.070902
20
48.900831
30
0.0
10
56.980590
20
48.680779
30
0.0
10
56.845124
20
48.404120
30
0.0
10
56.709657
20
48.072486
30
0.0
10
56.578666
20
47.610665
30
0.0
10
56.244106
20
47.175050
30
0.0
10
55.486612
20
46.841293
30
0.0
10
54.384146
20
46.623436
30
0.0
10
53.910013
20
46.442667
30
0.0
10
53.636751
20
45.173948
30
0.0
10
53.401121
20
44.006107
30
0.0
10
53.626893
20
44.232692
30
0.0
10
54.196708
20
44.557942
30
0.0
10
54.673178
20
44.694622
30
0.0
10
55.084057
20
44.822948
30
0.0
10
57.418879
20
45.282942
30
0.0
10
58.528317
20
45.516281
30
0.0
10
59.521141
20
45.698181
30
0.0
10
60.474219
20
45.785097
30
0.0
10
61.180057
20
45.875408
30
0.0
10
61.548953
20
45.965720
30
0.0
10
61.862030
20
45.965720
30
0.0
10
61.718159
20
46.243934
30
0.0
10
61.283463
20
47.438964
30
0.0
10
61.195385
20
49.195406
30
0.0
10
61.316407
20
50.888739
30
0.0
10
61.867340
20
51.027658
30
0.0
10
62.438715
20
50.848816
30
0.0
10
62.559547
20
50.523740
30
0.0
10
62.535443
20
49.607038
30
0.0
10
62.583194
20
48.162777
30
0.0
10
63.071680
20
46.890627
30
0.0
10
63.804334
20
45.911423
30
0.0
10
64.140041
20
45.573621
30
0.0
10
64.205479
20
45.198253
30
0.0
10
64.172213
20
44.869747
30
0.0
10
64.037023
20
44.688926
30
0.0
10
63.248520
20
44.648303
30
0.0
10
61.035517
20
44.498088
30
0.0
10
57.070902
20
43.832814
30
0.0
10
55.933481
20
43.616191
30
0.0
10
55.006141
20
43.354369
30
0.0
10
54.047686
20
42.854228
30
0.0
10
53.128210
20
42.459754
30
0.0
10
52.419879
20
42.616907
30
0.0
10
52.419862
20
42.616907
30
0.0
62
0
0
LWPOLYLINE
100
AcDbPolyline
8
Layer_1
90
41
70
0
10
45.917462
20
42.624217
30
0.0
10
45.525828
20
42.714528
30
0.0
10
44.981882
20
42.860304
30
0.0
10
44.648500
20
42.963168
30
0.0
10
43.810318
20
42.893073
30
0.0
10
42.289217
20
42.731991
30
0.0
10
41.941615
20
42.806631
30
0.0
10
41.808307
20
43.298610
30
0.0
10
41.937979
20
43.771746
30
0.0
10
42.522848
20
44.117717
30
0.0
10
43.111105
20
44.258106
30
0.0
10
44.380878
20
44.282394
30
0.0
10
45.840461
20
44.274351
30
0.0
10
45.951005
20
45.684189
30
0.0
10
46.139537
20
47.455568
30
0.0
10
46.416228
20
48.945998
30
0.0
10
46.688917
20
50.255509
30
0.0
10
46.799785
20
50.897003
30
0.0
10
46.836669
20
51.357874
30
0.0
10
46.196445
20
51.235130
30
0.0
10
44.632839
20
50.972222
30
0.0
10
43.667640
20
50.959791
30
0.0
10
42.169551
20
51.292802
30
0.0
10
42.006161
20
51.781877
30
0.0
10
42.092936
20
52.349166
30
0.0
10
42.752927
20
52.432534
30
0.0
10
44.833700
20
52.349225
30
0.0
10
46.504485
20
52.694160
30
0.0
10
47.535594
20
52.892983
30
0.0
10
48.190415
20
52.816780
30
0.0
10
48.296282
20
52.580087
30
0.0
10
48.277162
20
51.955985
30
0.0
10
48.089545
20
50.609657
30
0.0
10
47.855914
20
49.809744
30
0.0
10
47.768962
20
49.311758
30
0.0
10
47.137331
20
44.406188
30
0.0
10
47.046351
20
43.272783
30
0.0
10
46.937978
20
42.642282
30
0.0
10
46.408120
20
42.536501
30
0.0
10
45.917462
20
42.624220
30
0.0
10
45.917462
20
42.624217
30
0.0
62
0
0
LWPOLYLINE
100
AcDbPolyline
8
Layer_1
90
46
70
0
10
36.317394
20
45.080679
30
0.0
10
36.211159
20
45.501293
30
0.0
10
36.220612
20
46.244630
30
0.0
10
36.507513
20
47.636484
30
0.0
10
36.717726
20
48.358973
30
0.0
10
37.026573
20
49.533017
30
0.0
10
37.338787
20
50.707061
30
0.0
10
37.518523
20
51.529782
30
0.0
10
37.581202
20
51.810638
30
0.0
10
37.008000
20
51.884117
30
0.0
10
34.608530
20
51.964505
30
0.0
10
32.782262
20
51.971420
30
0.0
10
32.728744
20
51.565020
30
0.0
10
32.503164
20
50.390975
30
0.0
10
32.244953
20
49.014278
30
0.0
10
32.029530
20
48.146098
30
0.0
10
31.603634
20
46.723150
30
0.0
10
31.218245
20
45.446442
30
0.0
10
30.737169
20
45.335145
30
0.0
10
30.246543
20
45.471362
30
0.0
10
30.187839
20
46.589624
30
0.0
10
30.551481
20
48.414821
30
0.0
10
31.116500
20
50.795891
30
0.0
10
31.513512
20
53.119872
30
0.0
10
31.694114
20
53.842503
30
0.0
10
32.187238
20
54.003420
30
0.0
10
32.686123
20
53.863059
30
0.0
10
32.867513
20
53.477019
30
0.0
10
32.914013
20
53.324757
30
0.0
10
33.070713
20
53.276362
30
0.0
10
34.331594
20
53.234212
30
0.0
10
35.443236
20
53.283937
30
0.0
10
35.949630
20
53.362989
30
0.0
10
36.705732
20
53.232067
30
0.0
10
37.924929
20
52.996874
30
0.0
10
38.881216
20
52.777401
30
0.0
10
39.053974
20
52.586424
30
0.0
10
39.098852
20
52.296088
30
0.0
10
38.742462
20
50.309501
30
0.0
10
38.647418
20
49.938982
30
0.0
10
38.339621
20
48.781581
30
0.0
10
37.981633
20
47.591331
30
0.0
10
37.273741
20
45.085198
30
0.0
10
36.804421
20
44.975391
30
0.0
10
36.317394
20
45.080682
30
0.0
10
36.317394
20
45.080679
30
0.0
62
0
0
LWPOLYLINE
100
AcDbPolyline
8
Layer_1
90
65
70
0
10
12.728133
20
45.269813
30
0.0
10
12.539170
20
45.453334
30
0.0
10
12.502356
20
45.923240
30
0.0
10
12.502356
20
46.462431
30
0.0
10
13.792180
20
47.104746
30
0.0
10
15.824179
20
47.899605
30
0.0
10
17.424311
20
48.310614
30
0.0
10
19.366000
20
48.718205
30
0.0
10
20.720666
20
48.948608
30
0.0
10
21.740614
20
49.091559
30
0.0
10
22.490445
20
49.241681
30
0.0
10
22.693521
20
49.809792
30
0.0
10
22.493059
20
51.557542
30
0.0
10
22.230288
20
52.431058
30
0.0
10
21.960938
20
52.878045
30
0.0
10
21.581100
20
53.166268
30
0.0
10
21.488311
20
53.594068
30
0.0
10
21.620591
20
54.082957
30
0.0
10
21.958497
20
54.274342
30
0.0
10
22.214067
20
54.413745
30
0.0
10
22.879881
20
54.526634
30
0.0
10
23.347345
20
54.468443
30
0.0
10
23.519148
20
54.296920
30
0.0
10
23.851911
20
54.093720
30
0.0
10
24.711027
20
53.965828
30
0.0
10
26.726356
20
53.733240
30
0.0
10
28.190910
20
53.551865
30
0.0
10
28.802821
20
53.236594
30
0.0
10
28.867320
20
51.902837
30
0.0
10
28.771427
20
50.747892
30
0.0
10
28.502291
20
49.747133
30
0.0
10
28.055595
20
48.527933
30
0.0
10
27.721822
20
47.681631
30
0.0
10
27.348030
20
46.842098
30
0.0
10
26.832647
20
46.688208
30
0.0
10
26.292863
20
46.796582
30
0.0
10
26.180912
20
47.120777
30
0.0
10
26.215431
20
47.674227
30
0.0
10
26.683235
20
49.216920
30
0.0
10
27.055721
20
50.255497
30
0.0
10
27.485785
20
51.981021
30
0.0
10
27.537144
20
52.351875
30
0.0
10
26.928549
20
52.416100
30
0.0
10
25.371689
20
52.558724
30
0.0
10
24.070651
20
52.702192
30
0.0
10
23.717876
20
52.767264
30
0.0
10
23.775525
20
52.459647
30
0.0
10
23.970146
20
51.474697
30
0.0
10
24.100477
20
50.199261
30
0.0
10
24.050215
20
48.915715
30
0.0
10
23.686718
20
48.141057
30
0.0
10
23.380344
20
47.783126
30
0.0
10
22.411750
20
47.744338
30
0.0
10
20.810977
20
47.554862
30
0.0
10
19.456311
20
47.285718
30
0.0
10
17.830711
20
46.922030
30
0.0
10
16.385733
20
46.536508
30
0.0
10
15.425245
20
46.180968
30
0.0
10
14.901001
20
45.965720
30
0.0
10
14.347403
20
45.754130
30
0.0
10
13.867638
20
45.382222
30
0.0
10
13.672119
20
45.198023
30
0.0
10
13.335652
20
45.154249
30
0.0
10
12.728133
20
45.269805
30
0.0
10
12.728133
20
45.269813
30
0.0
62
0
0
LWPOLYLINE
100
AcDbPolyline
8
Layer_1
90
12
70
0
10
13.920240
20
49.415613
30
0.0
10
13.811867
20
50.127044
30
0.0
10
13.940330
20
50.816621
30
0.0
10
14.587834
20
51.005015
30
0.0
10
15.258497
20
50.895933
30
0.0
10
15.437466
20
50.293592
30
0.0
10
15.388062
20
49.895244
30
0.0
10
15.203661
20
49.585101
30
0.0
10
14.929691
20
49.354363
30
0.0
10
14.499234
20
49.307239
30
0.0
10
13.920240
20
49.415613
30
0.0
10
13.920240
20
49.415613
30
0.0
62
0
0
LWPOLYLINE
100
AcDbPolyline
8
Layer_1
90
12
70
0
10
18.239825
20
51.877835
30
0.0
10
18.073173
20
52.453717
30
0.0
10
17.993055
20
53.421360
30
0.0
10
18.012024
20
54.384448
30
0.0
10
18.142632
20
54.946663
30
0.0
10
18.730991
20
55.090676
30
0.0
10
19.317957
20
54.955158
30
0.0
10
19.403893
20
53.429318
30
0.0
10
19.242053
20
51.894774
30
0.0
10
18.739212
20
51.745134
30
0.0
10
18.239825
20
51.877841
30
0.0
10
18.239825
20
51.877835
30
0.0
62
0
0
LWPOLYLINE
100
AcDbPolyline
8
Layer_1
90
14
70
0
10
14.377091
20
54.116297
30
0.0
10
14.232337
20
57.488885
30
0.0
10
14.176652
20
60.748583
30
0.0
10
14.383903
20
60.943284
30
0.0
10
15.035948
20
61.147216
30
0.0
10
15.649247
20
60.972830
30
0.0
10
15.796847
20
60.421973
30
0.0
10
15.694552
20
59.895906
30
0.0
10
15.610353
20
57.458557
30
0.0
10
15.564332
20
55.051987
30
0.0
10
15.323063
20
54.116297
30
0.0
10
14.850444
20
54.003408
30
0.0
10
14.377091
20
54.116297
30
0.0
10
14.377091
20
54.116297
30
0.0
62
0
0
LWPOLYLINE
100
AcDbPolyline
8
Layer_1
90
59
70
0
10
56.827259
20
60.889630
30
0.0
10
56.382539
20
61.499230
30
0.0
10
56.057075
20
61.935004
30
0.0
10
55.414277
20
62.702648
30
0.0
10
54.125154
20
64.225144
30
0.0
10
52.466048
20
66.253485
30
0.0
10
51.590530
20
67.188830
30
0.0
10
51.438243
20
66.669541
30
0.0
10
50.967705
20
63.169986
30
0.0
10
50.817659
20
62.695852
30
0.0
10
50.324484
20
62.582075
30
0.0
10
49.802392
20
62.761871
30
0.0
10
49.681575
20
63.088487
30
0.0
10
49.749620
20
64.093960
30
0.0
10
49.987841
20
66.211835
30
0.0
10
50.112185
20
67.585939
30
0.0
10
50.047578
20
67.875696
30
0.0
10
49.891151
20
68.038481
30
0.0
10
49.707510
20
68.239320
30
0.0
10
49.665374
20
68.617827
30
0.0
10
49.773747
20
69.157612
30
0.0
10
50.390792
20
69.263554
30
0.0
10
50.969723
20
69.184028
30
0.0
10
51.539498
20
68.940987
30
0.0
10
52.600814
20
68.352071
30
0.0
10
53.723012
20
67.101559
30
0.0
10
54.540212
20
66.105098
30
0.0
10
54.903418
20
66.537212
30
0.0
10
55.174351
20
67.098520
30
0.0
10
55.445285
20
67.642178
30
0.0
10
55.625571
20
68.022026
30
0.0
10
55.806193
20
68.823654
30
0.0
10
56.009428
20
69.659595
30
0.0
10
56.265550
20
69.879285
30
0.0
10
56.627087
20
69.970118
30
0.0
10
56.986486
20
69.948909
30
0.0
10
57.216011
20
69.801929
30
0.0
10
57.409091
20
68.972991
30
0.0
10
57.402465
20
68.356600
30
0.0
10
57.136250
20
67.955695
30
0.0
10
56.762071
20
67.233206
30
0.0
10
56.393179
20
66.256037
30
0.0
10
55.896840
20
65.590150
30
0.0
10
55.620514
20
65.280138
30
0.0
10
55.639661
20
64.880902
30
0.0
10
55.900287
20
64.536050
30
0.0
10
56.348396
20
64.389187
30
0.0
10
56.682062
20
64.318957
30
0.0
10
56.938499
20
64.120050
30
0.0
10
57.161196
20
63.406889
30
0.0
10
57.237334
20
62.957755
30
0.0
10
57.612751
20
62.419941
30
0.0
10
57.993952
20
61.872370
30
0.0
10
58.064307
20
61.381371
30
0.0
10
57.955934
20
60.794804
30
0.0
10
57.429809
20
60.686431
30
0.0
10
57.061983
20
60.729978
30
0.0
10
56.827259
20
60.889631
30
0.0
10
56.827259
20
60.889630
30
0.0
62
0
0
LWPOLYLINE
100
AcDbPolyline
8
Layer_1
90
52
70
0
10
66.029747
20
61.968848
30
0.0
10
65.921374
20
62.500167
30
0.0
10
65.981409
20
62.905163
30
0.0
10
66.319022
20
63.227172
30
0.0
10
66.765582
20
63.828939
30
0.0
10
67.522677
20
66.087354
30
0.0
10
67.797096
20
66.788189
30
0.0
10
67.073410
20
66.688302
30
0.0
10
65.095016
20
66.585187
30
0.0
10
63.481034
20
66.689682
30
0.0
10
62.458604
20
66.916960
30
0.0
10
61.922392
20
67.308865
30
0.0
10
61.767062
20
67.907243
30
0.0
10
61.841992
20
68.322918
30
0.0
10
62.080631
20
68.700043
30
0.0
10
63.132154
20
69.431449
30
0.0
10
64.476396
20
70.235813
30
0.0
10
65.334351
20
70.705871
30
0.0
10
65.551425
20
70.799899
30
0.0
10
65.635906
20
70.985241
30
0.0
10
66.022655
20
71.681808
30
0.0
10
66.383179
20
72.084726
30
0.0
10
66.764194
20
72.155942
30
0.0
10
67.252520
20
72.027131
30
0.0
10
67.366351
20
71.474543
30
0.0
10
67.185729
20
70.846430
30
0.0
10
67.005107
20
70.569619
30
0.0
10
65.586494
20
69.265986
30
0.0
10
65.325772
20
69.072899
30
0.0
10
64.882796
20
68.753934
30
0.0
10
64.340929
20
68.451268
30
0.0
10
63.866796
20
68.168716
30
0.0
10
63.663596
20
68.000898
30
0.0
10
64.769907
20
67.881971
30
0.0
10
65.999154
20
67.882485
30
0.0
10
66.655789
20
68.054701
30
0.0
10
67.329964
20
68.188991
30
0.0
10
68.385529
20
68.485251
30
0.0
10
69.255672
20
68.722352
30
0.0
10
69.835909
20
68.558964
30
0.0
10
69.985821
20
68.001082
30
0.0
10
69.773631
20
67.398960
30
0.0
10
69.396836
20
66.692119
30
0.0
10
69.167296
20
66.150252
30
0.0
10
68.346678
20
64.126811
30
0.0
10
68.179151
20
63.079653
30
0.0
10
68.056322
20
62.422742
30
0.0
10
67.654935
20
62.221719
30
0.0
10
67.165333
20
62.041434
30
0.0
10
66.537440
20
61.866594
30
0.0
10
66.029747
20
61.968848
30
0.0
10
66.029747
20
61.968848
30
0.0
62
0
0
LWPOLYLINE
100
AcDbPolyline
8
Layer_1
90
47
70
0
10
38.158380
20
68.531081
30
0.0
10
37.922742
20
68.633808
30
0.0
10
37.421551
20
68.926215
30
0.0
10
37.112132
20
69.399851
30
0.0
10
36.856297
20
69.711288
30
0.0
10
36.076903
20
70.360561
30
0.0
10
35.180075
20
71.461739
30
0.0
10
34.764043
20
72.150591
30
0.0
10
34.643458
20
72.324213
30
0.0
10
34.398275
20
72.809405
30
0.0
10
34.089882
20
73.510608
30
0.0
10
33.938787
20
73.980653
30
0.0
10
33.914111
20
75.045897
30
0.0
10
34.035296
20
76.680210
30
0.0
10
34.456401
20
77.726908
30
0.0
10
34.894861
20
78.252675
30
0.0
10
35.386035
20
78.387408
30
0.0
10
35.923730
20
78.512365
30
0.0
10
36.375094
20
78.861542
30
0.0
10
36.664595
20
79.109897
30
0.0
10
37.085544
20
79.343949
30
0.0
10
37.454598
20
79.528447
30
0.0
10
37.916491
20
79.538546
30
0.0
10
38.565601
20
79.594252
30
0.0
10
39.004359
20
79.872356
30
0.0
10
39.487997
20
80.060636
30
0.0
10
40.067388
20
80.306932
30
0.0
10
40.344416
20
80.450900
30
0.0
10
40.925344
20
80.433157
30
0.0
10
41.720566
20
80.306437
30
0.0
10
42.394017
20
80.055661
30
0.0
10
43.696509
20
79.018071
30
0.0
10
44.525249
20
77.929464
30
0.0
10
45.152544
20
76.400564
30
0.0
10
45.530852
20
75.613929
30
0.0
10
45.667399
20
75.385323
30
0.0
10
45.660787
20
75.072062
30
0.0
10
45.416476
20
74.066583
30
0.0
10
44.846525
20
72.859901
30
0.0
10
44.246707
20
71.580246
30
0.0
10
43.245004
20
70.440030
30
0.0
10
42.734778
20
70.124523
30
0.0
10
40.782886
20
68.913229
30
0.0
10
39.970450
20
68.578971
30
0.0
10
39.102558
20
68.476882
30
0.0
10
38.158380
20
68.531081
30
0.0
10
38.158380
20
68.531081
30
0.0
62
0
0
LWPOLYLINE
100
AcDbPolyline
8
Layer_1
90
72
70
0
10
38.918351
20
69.789790
30
0.0
10
38.818287
20
69.962105
30
0.0
10
38.751205
20
70.476878
30
0.0
10
38.784189
20
70.891586
30
0.0
10
38.417777
20
70.891586
30
0.0
10
37.952646
20
71.011219
30
0.0
10
37.834618
20
71.482673
30
0.0
10
37.944212
20
71.922182
30
0.0
10
38.466796
20
72.282324
30
0.0
10
39.909524
20
73.362747
30
0.0
10
40.611685
20
74.286645
30
0.0
10
40.814885
20
74.584450
30
0.0
10
40.995507
20
74.820119
30
0.0
10
41.176129
20
75.192157
30
0.0
10
41.401907
20
75.805139
30
0.0
10
41.627685
20
76.311430
30
0.0
10
42.003068
20
76.858495
30
0.0
10
42.373625
20
77.227723
30
0.0
10
42.725557
20
77.303675
30
0.0
10
43.072662
20
77.387057
30
0.0
10
42.608976
20
78.006495
30
0.0
10
41.613003
20
78.859980
30
0.0
10
41.026624
20
79.115732
30
0.0
10
40.487157
20
79.041338
30
0.0
10
40.035853
20
78.901335
30
0.0
10
39.330125
20
78.558270
30
0.0
10
38.918351
20
78.121135
30
0.0
10
38.709468
20
77.817004
30
0.0
10
37.989953
20
77.719344
30
0.0
10
37.448759
20
77.679194
30
0.0
10
37.219898
20
77.552031
30
0.0
10
36.938749
20
77.393986
30
0.0
10
36.354131
20
76.943397
30
0.0
10
36.009673
20
76.524384
30
0.0
10
36.076128
20
76.273844
30
0.0
10
36.654270
20
75.847365
30
0.0
10
37.721729
20
75.751842
30
0.0
10
38.109641
20
75.797032
30
0.0
10
38.195862
20
75.942454
30
0.0
10
38.466490
20
76.325457
30
0.0
10
39.093092
20
76.490875
30
0.0
10
39.603239
20
76.379693
30
0.0
10
39.731151
20
75.936276
30
0.0
10
39.821462
20
75.542608
30
0.0
10
39.911774
20
75.089615
30
0.0
10
39.825520
20
74.678039
30
0.0
10
39.292189
20
74.191834
30
0.0
10
38.623886
20
73.691230
30
0.0
10
38.267798
20
73.383857
30
0.0
10
37.919002
20
73.123318
30
0.0
10
37.438830
20
73.011315
30
0.0
10
36.668169
20
72.980987
30
0.0
10
36.114026
20
73.108470
30
0.0
10
35.779366
20
73.392392
30
0.0
10
35.667154
20
73.831381
30
0.0
10
35.768015
20
74.273028
30
0.0
10
36.163865
20
74.430994
30
0.0
10
36.299235
20
74.478483
30
0.0
10
35.940266
20
74.577873
30
0.0
10
35.247772
20
74.877471
30
0.0
10
35.049810
20
75.063447
30
0.0
10
35.092239
20
74.670850
30
0.0
10
35.303852
20
73.917008
30
0.0
10
35.617748
20
73.239675
30
0.0
10
35.872852
20
72.746024
30
0.0
10
36.992851
20
71.154719
30
0.0
10
38.204834
20
70.440030
30
0.0
10
38.498199
20
70.267842
30
0.0
10
38.647418
20
69.929322
30
0.0
10
38.782885
20
69.717542
30
0.0
10
38.918351
20
69.789790
30
0.0
10
38.918351
20
69.789790
30
0.0
62
0
0
LWPOLYLINE
100
AcDbPolyline
8
Layer_1
90
15
70
0
10
42.870859
20
72.065630
30
0.0
10
43.459008
20
72.946164
30
0.0
10
43.885601
20
73.908484
30
0.0
10
44.116111
20
74.292665
30
0.0
10
44.288816
20
74.576787
30
0.0
10
44.214999
20
74.783172
30
0.0
10
44.083241
20
74.971285
30
0.0
10
44.022326
20
74.760235
30
0.0
10
43.465126
20
73.637550
30
0.0
10
43.253285
20
73.280974
30
0.0
10
41.838671
20
71.338020
30
0.0
10
41.224891
20
70.665808
30
0.0
10
41.967164
20
71.365719
30
0.0
10
42.870859
20
72.065630
30
0.0
10
42.870859
20
72.065630
30
0.0
62
0
0
LWPOLYLINE
100
AcDbPolyline
8
Layer_1
90
6
70
0
10
42.113700
20
74.102321
30
0.0
10
42.078207
20
74.187302
30
0.0
10
41.988929
20
74.047145
30
0.0
10
42.028800
20
73.967347
30
0.0
10
42.113700
20
74.102321
30
0.0
10
42.113700
20
74.102321
30
0.0
62
0
0
LWPOLYLINE
100
AcDbPolyline
8
Layer_1
90
5
70
0
10
37.134710
20
74.383220
30
0.0
10
36.908932
20
74.383220
30
0.0
10
37.021821
20
74.337668
30
0.0
10
37.134710
20
74.383220
30
0.0
10
37.134710
20
74.383220
30
0.0
62
0
0
LWPOLYLINE
100
AcDbPolyline
8
Layer_1
90
7
70
0
10
42.689475
20
75.097946
30
0.0
10
42.531649
20
75.086915
30
0.0
10
42.440485
20
74.885748
30
0.0
10
42.464024
20
74.782845
30
0.0
10
42.593156
20
74.888929
30
0.0
10
42.689475
20
75.097947
30
0.0
10
42.689475
20
75.097946
30
0.0
  0
ENDSEC
  0
SECTION
  2
OBJECTS
  0
DICTIONARY
  5
C
330
0
100
AcDbDictionary
  3
ACAD_GROUP
350
D
  3
ACAD_MLINESTYLE
350
17
  0
DICTIONARY
  5
D
330
C
100
AcDbDictionary
  0
DICTIONARY
  5
1A
330
C
100
AcDbDictionary
  0
DICTIONARY
  5
17
330
C
100
AcDbDictionary
  3
STANDARD
350
18
  0
DICTIONARY
  5
19
330
C
100
AcDbDictionary
  0
ENDSEC
  0
EOF
