<?xml version="1.0" encoding="UTF-8" standalone="no"?>
<svg
   xmlns:dc="http://purl.org/dc/elements/1.1/"
   xmlns:cc="http://creativecommons.org/ns#"
   xmlns:rdf="http://www.w3.org/1999/02/22-rdf-syntax-ns#"
   xmlns:svg="http://www.w3.org/2000/svg"
   xmlns="http://www.w3.org/2000/svg"
   id="svg81"
   version="1.1"
   viewBox="0 0 210 297"
   height="297mm"
   width="210mm">
  <defs
     id="defs75">
    <clipPath
       clipPathUnits="userSpaceOnUse"
       id="clipPath196">
      <path
         style="fill:none;stroke:#000000;stroke-width:1px;stroke-linecap:butt;stroke-linejoin:miter;stroke-opacity:1"
         d="m 75.049755,281.25583 c -0.507833,0 -0.114656,0.0682 -0.433813,-0.14461 -0.08968,-0.0598 -0.213,-0.0684 -0.28921,-0.1446 -0.07621,-0.0762 -0.05492,-0.22941 -0.144604,-0.28921 -0.08021,-0.0535 -0.202989,0.0431 -0.289209,0 -0.121941,-0.061 -0.180142,-0.20741 -0.289209,-0.28921 -0.08623,-0.0647 -0.212999,-0.0684 -0.289209,-0.1446 -0.122891,-0.12289 -0.180642,-0.29811 -0.289209,-0.43382 -0.212919,-0.26615 -0.504825,-0.46118 -0.723023,-0.72302 -0.597486,-0.71702 -0.05738,-0.15837 -0.433814,-0.72302 -0.133687,-0.20053 -0.30608,-0.37405 -0.433813,-0.57842 -0.114249,-0.1828 -0.178303,-0.39358 -0.289209,-0.57842 -0.356053,-0.59342 -0.616745,-0.91873 -1.012232,-1.44605 -0.144605,-0.1928 -0.289209,-0.38561 -0.433814,-0.57841 -0.144604,-0.0964 -0.325246,-0.1535 -0.433813,-0.28921 -0.09521,-0.11903 -0.06897,-0.30147 -0.144605,-0.43382 -0.119573,-0.20925 -0.31424,-0.36916 -0.433813,-0.57841 -0.07563,-0.13235 -0.09109,-0.2911 -0.144605,-0.43382 -0.09114,-0.24304 -0.173124,-0.49085 -0.289209,-0.72302 -0.07772,-0.15545 -0.218629,-0.275 -0.289209,-0.43381 -0.123813,-0.27858 -0.185028,-0.58113 -0.289209,-0.86763 -0.08871,-0.24395 -0.207129,-0.47677 -0.289209,-0.72302 -0.06285,-0.18855 -0.05573,-0.40066 -0.144605,-0.57842 -0.06097,-0.12194 -0.213589,-0.17577 -0.289209,-0.28921 -0.02816,-0.0422 0.01506,-0.63272 0,-0.72302 -0.03267,-0.19604 -0.101494,-0.38441 -0.144604,-0.57842 -0.31018,-1.39581 0.02472,-0.021 -0.28921,-1.59065 -0.187803,-0.93902 -0.184182,-0.33033 -0.289209,-1.59065 -0.02001,-0.24018 0.02002,-0.48285 0,-0.72302 -0.03061,-0.3673 -0.18503,-1.31854 -0.289209,-1.73526 -0.355979,-1.42393 0.108704,1.08603 -0.289209,-1.30144 -0.229219,-1.03153 -0.07925,0.24752 -0.289209,-1.01223 -0.03962,-0.23773 0.03962,-0.4853 0,-0.72302 -0.02506,-0.15036 -0.0964,-0.28921 -0.144604,-0.43382 -0.0482,-0.0964 -0.123465,-0.18352 -0.144605,-0.28921 -0.02836,-0.14179 0.02377,-0.29117 0,-0.43381 -0.05012,-0.30071 -0.215269,-0.57188 -0.289209,-0.86763 -0.04676,-0.18705 0.04676,-0.39137 0,-0.57842 -0.01653,-0.0661 -0.114115,-0.0836 -0.144605,-0.1446 -0.02156,-0.0431 0.01169,-0.0978 0,-0.14461 -0.03697,-0.14787 -0.114714,-0.28434 -0.144604,-0.43381 -0.07621,-0.38107 0.247642,-0.80647 -0.144605,-1.15684 -0.0683,-0.25042 -0.214619,-0.47439 -0.289209,-0.72302 -0.157052,-0.5235 -0.214939,-1.39712 -0.289209,-1.87986 -0.03737,-0.24292 -0.100634,-0.4812 -0.144604,-0.72302 -0.05244,-0.28847 -0.081,-0.58141 -0.144605,-0.86763 -0.224849,-1.01183 -0.110641,0.27171 -0.289209,-1.15683 -0.01794,-0.14349 0.02377,-0.29118 0,-0.43382 -0.02506,-0.15035 -0.0964,-0.28921 -0.144604,-0.43381 -0.0482,-0.0964 -0.123465,-0.18352 -0.144605,-0.28921 -0.05672,-0.28359 0.04755,-0.58235 0,-0.86763 -0.02506,-0.15035 -0.129435,-0.28214 -0.144605,-0.43381 -0.03357,-0.33574 0.03055,-0.67621 0,-1.01223 -0.01799,-0.19793 -0.126614,-0.3805 -0.144604,-0.57842 -0.03055,-0.33603 0.03055,-0.67621 0,-1.01223 -0.01799,-0.19793 -0.119955,-0.38121 -0.144605,-0.57842 -0.02391,-0.19132 0.03449,-0.38872 0,-0.57842 -0.06277,-0.34525 -0.226439,-0.66698 -0.289209,-1.01223 -0.03449,-0.1897 0.01746,-0.3864 0,-0.57842 -0.03086,-0.33943 -0.116304,-0.67257 -0.144604,-1.01223 -0.02002,-0.24018 0.01717,-0.48263 0,-0.72302 -0.0074,-0.10336 -0.219419,-2.06941 -0.289209,-2.31368 -0.100848,-0.35296 -0.323271,-0.66217 -0.433814,-1.01223 -0.127592,-0.40404 -0.557625,-2.30138 -0.723023,-2.89209 -0.230299,-0.8225 -0.488374,-1.63701 -0.723022,-2.45827 -1.02977,-3.6042 0.331531,0.83294 -1.301441,-4.33814 0,0.0482 -0.0482,0.1446 0,0.1446 0.05718,0 0.02756,-0.20311 -0.144605,-0.28921 -0.08623,-0.0431 -0.221039,0.0682 -0.289209,0 -0.03408,-0.0341 0.03408,-0.1105 0,-0.1446 -0.07621,-0.0762 -0.186958,-0.1105 -0.289209,-0.1446 -0.04572,-0.0153 -0.110524,0.0341 -0.144604,0 -0.03408,-0.0341 0.02156,-0.10151 0,-0.14461 -0.03049,-0.061 -0.09641,-0.0964 -0.144605,-0.1446 -0.0482,-0.0482 -0.07993,-0.12301 -0.144604,-0.14461 -0.343638,-0.1145 -0.262635,0.17118 -0.578419,-0.1446 -0.07621,-0.0762 -0.05492,-0.22941 -0.144604,-0.28921 -0.04573,-0.0305 -0.493658,0.0283 -0.578418,0 -0.06466,-0.0216 -0.07847,-0.12811 -0.144605,-0.14461 -0.318813,-0.0797 -0.689634,0.0645 -1.012232,0 -0.149466,-0.0299 -0.283461,-0.1195 -0.433813,-0.1446 -0.142637,-0.0238 -0.289209,0 -0.433814,0 -0.482015,0 -0.96403,0 -1.446045,0 -2.506479,0 -5.012958,0 -7.519436,0 -0.337411,0 -0.674821,0 -1.012232,0 -0.144604,0 -0.289209,0 -0.433814,0 -0.0964,0 -0.194679,0.0189 -0.289209,0 -0.149466,-0.0299 -0.285938,-0.10761 -0.433813,-0.14461 -0.04677,-0.0117 -0.09887,0.0153 -0.144605,0 -0.102251,-0.0341 -0.186958,-0.1105 -0.289209,-0.1446 -0.04572,-0.0152 -0.0964,0 -0.144604,0 -0.144605,0 -0.289209,0 -0.433814,0 -0.04821,0 -0.110525,0.0341 -0.144605,0 -0.03408,-0.0341 0.03408,-0.1105 0,-0.1446 -0.126351,-0.12636 -0.610079,-0.23271 -0.723022,-0.28921 -0.155445,-0.0777 -0.284788,-0.19981 -0.433814,-0.28921 -0.09242,-0.0555 -0.199529,-0.0848 -0.289209,-0.14461 -0.20053,-0.13368 -0.374044,-0.30608 -0.578418,-0.43381 -0.182798,-0.11425 -0.403007,-0.16392 -0.578418,-0.28921 -0.16641,-0.11886 -0.280967,-0.29795 -0.433814,-0.43381 -0.281374,-0.25011 -0.587802,-0.47118 -0.867627,-0.72303 -0.202673,-0.1824 -0.374623,-0.39726 -0.578418,-0.57841 -0.150379,-0.13367 -1.070226,-0.85809 -1.301441,-1.01224 -0.728378,-0.48558 -0.647978,-0.27396 -1.156836,-0.86762 -0.368248,-0.42963 -0.695464,-0.99352 -1.012232,-1.44605 -0.553682,-0.79097 -0.428027,-0.47237 -1.012232,-1.44604 -0.304608,-0.50768 -0.45764,-1.05989 -0.723023,-1.59065 -0.07772,-0.15545 -0.218629,-0.275 -0.289209,-0.43382 -0.123812,-0.27858 -0.192809,-0.57842 -0.289209,-0.86762 -0.144604,-0.43382 -0.308189,-0.86176 -0.433813,-1.30145 -0.06752,-0.23632 -0.07709,-0.48669 -0.144605,-0.72302 -1.096487,-3.8377 0.04445,0.80066 -0.578418,-2.31367 -0.07795,-0.38976 -0.205929,-0.76818 -0.289209,-1.15684 -0.442859,-2.06667 0.129043,0.22178 -0.289209,-1.59065 -0.08938,-0.3873 -0.232999,-0.76335 -0.289209,-1.15683 -0.0409,-0.28631 0.01924,-0.57906 0,-0.86763 -0.02904,-0.43552 -0.09641,-0.86763 -0.144605,-1.30144 -0.0482,-0.28921 -0.122114,-0.57529 -0.144604,-0.86763 -0.02588,-0.33642 0,-0.67482 0,-1.01223 0,-0.48202 0,-0.96403 0,-1.44605 0,-0.72302 0,-1.44604 0,-2.16906 0,-0.43382 -0.02548,-0.86838 0,-1.30144 0.02282,-0.38795 0.129074,-0.76854 0.144604,-1.15684 0.03275,-0.81877 -0.03559,-1.63963 0,-2.45828 0.01274,-0.29292 0.103145,-0.57737 0.144605,-0.86763 0.05495,-0.3847 0.120364,-0.76898 0.144604,-1.15683 0.02405,-0.38486 -0.04258,-0.77358 0,-1.15684 0.05428,-0.48855 0.203779,-0.96196 0.289209,-1.44604 0.05924,-0.33565 0.06194,-0.68158 0.144605,-1.01224 0.110907,-0.44362 0.329078,-0.85631 0.433813,-1.30144 0.08901,-0.37828 0.0603,-0.77747 0.144605,-1.15683 0.248545,-1.11846 0.793557,-2.16147 0.867627,-3.32591 0.0604,-0.28691 0.0871,-0.58012 0.144605,-0.86762 0.222239,-1.1112 0.485577,-2.21783 0.723022,-3.32591 0.112918,-0.52695 0.176292,-1.0637 0.28921,-1.59065 0.541648,-2.5277 0.02661,0.0448 0.578418,-2.02446 0.114504,-0.42939 0.202059,-0.86568 0.289209,-1.30144 0.172515,-0.86258 0.155922,-1.09146 0.289209,-2.02447 0.04146,-0.29025 0.0964,-0.57841 0.144604,-0.86762 0.0482,-0.28921 0.06405,-0.58571 0.144605,-0.86763 0.113139,-0.39599 0.312699,-0.76321 0.433814,-1.15684 0.07228,-0.23491 0.06194,-0.49156 0.144604,-0.72302 0.159669,-0.44707 0.428295,-0.85107 0.578418,-1.30144 0.09271,-0.27815 0.05188,-0.58948 0.144605,-0.86763 0.150123,-0.45037 0.428295,-0.85107 0.578418,-1.30144 0.06923,-0.20769 0.182366,-1.5883 0.433814,-1.73525 0.138514,-0.38784 0.295298,-0.769 0.433813,-1.15684 0.133893,-0.3749 0.642683,-1.96823 0.723023,-2.16907 0.120087,-0.30022 0.306441,-0.57042 0.433813,-0.86762 0.365721,-0.85335 0.622459,-1.75838 1.012232,-2.60289 0.180668,-0.39144 0.397751,-0.76539 0.578418,-1.15683 0.108777,-0.23568 0.180433,-0.48734 0.289209,-0.72303 0.180668,-0.39144 0.36452,-0.78251 0.578419,-1.15683 0.966331,-1.69108 0.216702,0.009 1.30144,-2.02447 0.17275,-0.3239 0.230188,-0.70679 0.433814,-1.01223 0.189062,-0.28359 0.502862,-0.46283 0.723023,-0.72302 0.311354,-0.36796 0.556273,-0.78887 0.867627,-1.15684 0.22016,-0.26019 0.482015,-0.48201 0.723023,-0.72302 0.385612,-0.38561 0.742785,-0.80193 1.156836,-1.15683 0.263907,-0.22621 0.594314,-0.36368 0.867627,-0.57842 0.116987,-0.0919 1.735375,-1.54253 2.024464,-1.73526 0.26904,-0.17936 0.578418,-0.28921 0.867627,-0.43381 0.482015,-0.24101 0.969764,-0.47087 1.446045,-0.72302 0.343452,-0.18183 0.664646,-0.40463 1.012232,-0.57842 0.827696,-0.41385 1.849911,-0.85765 2.747486,-1.15684 0.621968,-0.20732 1.251897,-0.39003 1.879859,-0.57842 0.336113,-0.10083 0.679327,-0.17824 1.012232,-0.28921 0.3907,-0.13023 0.758339,-0.32985 1.156836,-0.43381 0.713465,-0.18612 1.453742,-0.25498 2.169068,-0.43381 0.636037,-0.15901 1.246385,-0.40949 1.879859,-0.57842 0.81338,-0.2169 1.651158,-0.33927 2.458278,-0.57842 0.497756,-0.14748 0.945192,-0.44182 1.446045,-0.57842 0.0077,-0.002 2.354285,-0.40571 2.747486,-0.43381 0.336553,-0.024 0.675341,0.0187 1.012232,0 0.531583,-0.0295 1.058983,-0.11661 1.59065,-0.14461 0.894325,-0.0471 2.224484,0.0471 3.036695,0.14461 0.58222,0.0699 1.164804,0.15339 1.735255,0.28921 0.444844,0.10591 0.860843,0.31142 1.30144,0.43381 1.889859,0.52492 0.72062,-0.001 1.879859,0.57842 0.723023,0.0482 1.444794,0.16724 2.169069,0.1446 2.291429,-0.0716 2.105071,-0.32487 4.048927,-0.57841 0.575547,-0.0751 1.158807,-0.0768 1.735254,-0.14461 1.062917,-0.12505 2.120693,-0.29049 3.1813,-0.43381 0.722851,-0.0977 1.440604,-0.25185 2.169068,-0.28921 1.155318,-0.0592 2.313673,0 3.470509,0 0.62662,0 1.254627,-0.0417 1.879859,0 0.823249,0.0549 1.637295,0.20711 2.458275,0.28921 0.62535,0.0625 1.25771,0.0557 1.87986,0.1446 1.06699,0.15243 2.11898,0.39631 3.1813,0.57842 0.62488,0.10712 1.25818,0.16487 1.87986,0.28921 0.58464,0.11693 1.14715,0.3358 1.73525,0.43381 0.86109,0.14352 1.74583,0.12333 2.60289,0.28921 0.64366,0.12458 1.2537,0.3841 1.87985,0.57842 0.7717,0.23949 1.53346,0.51296 2.31368,0.72302 0.47466,0.1278 0.97242,0.15765 1.44604,0.28921 0.39681,0.11023 0.76614,0.30358 1.15684,0.43382 0.62197,0.20732 1.2519,0.39003 1.87986,0.57841 0.33611,0.10084 0.68132,0.17242 1.01223,0.28921 1.32642,0.46815 2.5779,1.1225 3.90432,1.59065 1.94239,0.68555 0.0568,-0.16637 2.16907,0.72303 1.33157,0.56065 2.6132,1.23429 3.90432,1.87986 0.85278,0.42638 1.28902,0.6288 2.16907,1.15683 0.29805,0.17883 0.57438,0.39181 0.86763,0.57842 0.23712,0.15089 0.49431,0.27045 0.72302,0.43381 0.40057,0.28613 1.51503,1.1831 2.02446,1.59065 1.23136,0.98509 2.46122,1.95973 3.61512,3.0367 0.299,0.27907 0.57842,0.57842 0.86763,0.86763 0.2892,0.2892 0.58855,0.56862 0.86762,0.86762 1.4375,1.54018 0.76544,0.88321 1.87986,2.16907 3.48545,3.92113 -0.33496,-0.42215 1.73526,2.02446 0.49542,0.5855 1.12587,1.24079 1.59065,1.87986 0.20444,0.28111 0.3815,0.58121 0.57841,0.86763 0.23596,0.34321 1.26221,1.77622 1.59065,2.31367 0.33741,0.57842 0.67483,1.15684 1.01224,1.73526 0.1928,0.38561 0.3624,0.78372 0.57841,1.15683 0.31489,0.5439 0.70043,1.04499 1.01224,1.59065 1.6164,2.82871 -0.11409,0.061 1.30144,2.89209 0.39572,0.79145 0.88192,1.53458 1.30144,2.31368 0.25549,0.47449 0.48201,0.96403 0.72302,1.44604 0.62662,1.25324 1.25324,2.50648 1.87986,3.75972 0.33741,0.67482 0.72205,1.32803 1.01223,2.02446 0.19355,0.46453 0.27468,0.96864 0.43381,1.44605 0.17842,0.53523 0.37589,1.06407 0.57842,1.59065 0.27955,0.72681 0.5942,1.43993 0.86763,2.16907 0.16056,0.42816 0.28275,0.86983 0.43381,1.30144 0.18638,0.53251 0.39065,1.05863 0.57842,1.59065 0.10146,0.28747 0.17977,0.58309 0.28921,0.86763 0.13178,0.34262 0.31773,0.66397 0.43381,1.01223 0.0777,0.23317 0.074,0.4876 0.14461,0.72302 0.0746,0.24863 0.21287,0.47493 0.28921,0.72302 0.11689,0.37991 0.18001,0.77465 0.28921,1.15684 0.0838,0.29312 0.21066,0.57307 0.28921,0.86763 0.1145,0.42939 0.16712,0.87414 0.28921,1.30144 0.0713,0.24958 0.23084,0.47009 0.2892,0.72302 0.0874,0.37866 0.0807,0.77351 0.14461,1.15684 0.0327,0.19603 0.09,0.38732 0.1446,0.57841 0.0419,0.14657 0.12305,0.28292 0.14461,0.43382 0.0273,0.19087 -0.0317,0.38823 0,0.57842 0.0177,0.10631 0.0964,0.1928 0.1446,0.2892 0.0964,0.19281 0.22999,0.37115 0.28921,0.57842 0.0397,0.13904 -0.0351,0.29353 0,0.43382 0.063,0.25182 0.19807,0.47997 0.28921,0.72302 0.35184,0.93824 -0.12513,-0.14737 0.43381,1.15684 0.0425,0.0991 0.11052,0.18695 0.14461,0.2892 0.0628,0.18855 0.0663,0.39575 0.1446,0.57842 0.30971,0.72266 0.28921,0.1651 0.28921,0.72303 0.91583,0.81942 1.83938,1.6303 2.74749,2.45827 0.73084,0.66635 1.44604,1.34965 2.16907,2.02447 0.72302,0.67482 1.45872,1.33631 2.16906,2.02446 0.95076,0.92105 2.92424,2.86465 3.90433,4.04893 0.70079,0.84679 1.33015,1.75077 2.02446,2.60288 0.36664,0.44996 0.80563,0.83933 1.15684,1.30144 0.5663,0.74513 1.05792,1.54418 1.59065,2.31367 0.33491,0.48376 0.67623,0.96305 1.01223,1.44605 0.43523,0.62564 0.85846,1.25968 1.30144,1.87986 0.28017,0.39223 0.60577,0.75215 0.86763,1.15683 0.26959,0.41665 0.4768,0.87056 0.72302,1.30144 0.6355,1.11214 1.09517,1.77725 1.59065,2.89209 0.43012,0.96777 0.69447,1.74881 1.01223,2.74749 0.2962,0.9309 0.71608,2.171 0.86763,3.1813 0.079,0.52651 0.10527,1.0597 0.1446,1.59065 0.0658,0.8886 0.19593,2.44415 0.14461,3.47051 -0.029,0.5797 -0.0868,1.15771 -0.14461,1.73525 -0.0387,0.38669 -0.0632,0.77685 -0.1446,1.15684 -0.0639,0.29809 -0.20319,0.57516 -0.28921,0.86763 -0.15507,0.52725 -0.26832,1.06658 -0.43381,1.59065 -0.12402,0.39271 -0.28721,0.77198 -0.43382,1.15683 -1.16075,3.04698 -0.26133,0.75439 -1.30144,3.1813 -0.26218,0.61176 -0.95599,2.3458 -1.30144,3.0367 -0.17379,0.34758 -0.39114,0.67172 -0.57842,1.01223 -0.34297,0.62359 -0.682,1.24942 -1.01223,1.87986 -1.06426,2.03177 -0.0767,0.46072 -1.87986,3.03669 -0.23778,0.3397 -0.45593,0.69507 -0.72302,1.01224 -0.50543,0.60019 -1.06421,1.15339 -1.59065,1.73525 -0.83201,0.91959 -1.1909,1.47038 -2.16907,2.16907 -1.63242,1.16602 -1.78321,1.0924 -3.1813,2.02446 -0.48956,0.32637 -0.9471,0.7004 -1.44604,1.01223 -0.2742,0.17138 -0.58833,0.27089 -0.86763,0.43382 -0.30024,0.17514 -0.55674,0.42297 -0.86763,0.57842 -0.34126,0.17063 -0.67096,0.11857 -1.01223,0.28921 -0.061,0.0305 -0.0879,0.10679 -0.14461,0.1446 -0.69932,0.34966 0.008,-0.042 -0.43381,0.28921 -0.13903,0.10427 -0.28479,0.19979 -0.43381,0.28921 -0.0924,0.0555 -0.20505,0.0773 -0.28921,0.1446 -0.15969,0.12775 -0.28921,0.28921 -0.43382,0.43382 -0.33741,0.33741 -0.66256,0.68754 -1.01223,1.01223 -0.32565,0.30239 -0.68803,0.56368 -1.01223,0.86762 -0.69623,0.65272 -1.34964,1.34965 -2.02446,2.02447 -0.33741,0.33741 -0.67482,0.67482 -1.01223,1.01223 -0.14461,0.1446 -0.30607,0.27412 -0.43382,0.43381 -0.8223,1.02788 0.71171,-0.5671 -0.43381,0.57842 -0.48202,0.33741 -0.90647,0.77763 -1.44605,1.01223 -0.62169,0.27031 -2.74153,0.55735 -3.47051,0.72303 -0.53591,0.1218 -1.05025,0.33374 -1.59065,0.43381 -0.76423,0.14152 -1.54425,0.17929 -2.31367,0.28921 -0.5805,0.0829 -1.15219,0.22674 -1.73525,0.28921 -0.76833,0.0823 -1.54505,0.0651 -2.31368,0.1446 -0.63062,0.0652 -1.24736,0.24559 -1.87985,0.28921 -0.7694,0.0531 -1.54298,-0.0285 -2.31368,0 -8.3e-4,3e-5 -3.17717,0.28888 -3.1813,0.28921 -6.65125,0.47509 1.61564,-0.13464 -3.47051,0.28921 -0.6742,0.0562 -1.35046,0.086 -2.02446,0.1446 -0.43484,0.0378 -0.86675,0.10509 -1.30144,0.14461 -0.62589,0.0569 -1.25422,0.085 -1.87986,0.1446 -0.38686,0.0369 -0.76921,0.11692 -1.15684,0.14461 -0.28847,0.0206 -0.58065,-0.0359 -0.86762,0 -0.48777,0.061 -0.96197,0.20378 -1.44605,0.28921 -0.33565,0.0592 -0.67403,0.10233 -1.01223,0.1446 -0.43311,0.0541 -0.86607,0.11351 -1.30144,0.14461 -0.2404,0.0172 -0.48482,-0.0367 -0.72302,0 -0.39286,0.0604 -0.76398,0.22877 -1.15684,0.28921 -0.2382,0.0366 -0.4859,-0.0431 -0.72302,0 -0.29994,0.0545 -0.5687,0.22942 -0.86763,0.2892 -1.10456,0.22092 -1.12184,0.0313 -2.02446,0.28921 -2.83035,0.80867 -0.14878,0.0978 -2.02447,0.72303 -0.47741,0.15913 -0.96863,0.27467 -1.44604,0.43381 -0.24625,0.0821 -0.4744,0.21462 -0.72302,0.28921 -0.23542,0.0706 -0.49483,0.0533 -0.72303,0.1446 -0.26096,0.10439 -0.47163,0.30812 -0.72302,0.43382 -0.22361,0.1118 -0.70962,0.2102 -1.15684,0.43381 -0.15544,0.0777 -0.27836,0.21149 -0.43381,0.28921 -0.23217,0.11608 -0.48444,0.18696 -0.72302,0.28921 -0.0991,0.0425 -0.18914,0.10457 -0.28921,0.1446 -0.14153,0.0566 -0.29748,0.0764 -0.43382,0.14461 -0.15544,0.0777 -0.2981,0.18064 -0.43381,0.28921 -0.34836,0.27869 -0.56841,0.71969 -1.01223,0.86762 -0.13043,0.0435 -0.30142,-0.0378 -0.43381,0 -0.43969,0.12563 -0.86176,0.30819 -1.30144,0.43382 -0.1911,0.0546 -0.3939,0.0708 -0.57842,0.1446 -0.0633,0.0253 -0.0836,0.11412 -0.14461,0.14461 -0.0853,0.0427 -0.33435,-0.0332 -0.43381,0 -0.89758,0.29919 0.4806,-0.0117 -0.72302,0.28921 -0.0935,0.0234 -0.19569,-0.0234 -0.28921,0 -0.14788,0.037 -0.28594,0.10763 -0.43382,0.1446 -0.0468,0.0117 -0.10149,-0.0216 -0.1446,0 -1.34872,0.89914 0.20298,-0.0195 -0.72302,0.28921 -0.0647,0.0216 -0.0836,0.11412 -0.14461,0.1446 -0.0862,0.0431 -0.1997,-0.0358 -0.28921,0 -0.20014,0.0801 -0.38028,0.2043 -0.57842,0.28921 -0.1401,0.06 -0.29371,0.0846 -0.43381,0.14461 -0.19813,0.0849 -0.38561,0.1928 -0.57842,0.28921 -0.0964,0.0482 -0.18696,0.11052 -0.28921,0.1446 -0.43381,0.14461 0.28921,-0.28921 -0.43381,0 -0.16136,0.0645 -0.27837,0.21149 -0.43381,0.28921 -0.13634,0.0682 -0.28921,0.0964 -0.43382,0.1446 -0.1446,0.0482 -0.28594,0.10764 -0.43381,0.14461 -0.0935,0.0234 -0.19281,0 -0.28921,0 -0.28921,0 -0.57842,0 -0.86763,0 -0.241,0 -0.48201,0 -0.72302,0 -0.0482,0 -0.0964,0 -0.1446,0 -0.0482,0 -0.1015,0.0216 -0.14461,0 -0.061,-0.0305 -0.0799,-0.12305 -0.1446,-0.14461 -0.0915,-0.0305 -0.19281,0 -0.28921,0 -0.24101,0 -0.48202,0 -0.72303,0 -0.1446,0 -0.290658,0.0205 -0.433809,0 -0.196742,-0.0281 -0.382382,-0.11193 -0.578418,-0.1446 -0.16721,-0.0279 -0.549344,0 -0.723023,0 -0.482015,0 -0.96403,0 -1.446045,0 -0.179112,0 -0.407433,0.0285 -0.578418,0 -0.196036,-0.0327 -0.381676,-0.1165 -0.578418,-0.1446 -0.143152,-0.0205 -0.289209,0 -0.433814,0 -0.192806,0 -0.385612,0 -0.578418,0 -0.241008,0 -0.482015,0 -0.723023,0 -0.144604,0 -0.290662,-0.0205 -0.433813,0 -0.196743,0.0281 -0.381676,0.11649 -0.578419,0.1446 -0.240475,0.0344 -0.743977,0 -1.012231,0 -0.144605,0 -0.291177,-0.0238 -0.433814,0 -1.440649,0.24011 0.780987,0.0651 -1.012232,0.28921 -0.191317,0.0239 -0.386404,-0.0175 -0.578418,0 -0.339436,0.0309 -0.673087,0.11069 -1.012232,0.1446 -0.143887,0.0144 -0.289209,0 -0.433813,0 -0.530217,0 -1.060434,0 -1.59065,0 -0.385612,0 -0.771224,0 -1.156836,0 -0.192807,0 -0.386792,0.0213 -0.578419,0 -2.387765,-0.2653 0.180501,0.009 -1.012231,-0.28921 -0.233812,-0.0584 -0.486696,0.0473 -0.723023,0 -0.105689,-0.0211 -0.18352,-0.12346 -0.289209,-0.1446 -0.141797,-0.0284 -0.291177,0.0238 -0.433814,0 -1.269364,-0.21156 0.221042,-0.0532 -0.723022,-0.28921 -0.09352,-0.0234 -0.195685,0.0234 -0.28921,0 -0.209127,-0.0523 -0.373916,-0.22104 -0.578418,-0.28921 -0.04573,-0.0152 -0.101491,0.0216 -0.144604,0 -0.679,-0.3395 -0.181928,-0.21737 -0.723023,-0.43381 -0.09412,-0.0376 -0.609981,-0.17617 -0.723023,-0.28921 -0.07621,-0.0762 -0.06839,-0.213 -0.144604,-0.28921 -0.152427,-0.15243 -0.425992,-0.13678 -0.578418,-0.28921 -0.07621,-0.0762 -0.06839,-0.21299 -0.144605,-0.28921 -0.07621,-0.0762 -0.202983,-0.0799 -0.289209,-0.1446 -1.040137,-0.78011 0.305171,0.16056 -0.433814,-0.57842 -0.07621,-0.0762 -0.212995,-0.0684 -0.289209,-0.1446 -0.07621,-0.0762 -0.08482,-0.19953 -0.144604,-0.28921 -0.113437,-0.17016 -0.306063,-0.27413 -0.433814,-0.43382 -0.611939,0.23009 -0.207115,-0.45528 -0.289209,-0.57842 -0.0964,-0.0964 -0.192806,-0.1928 -0.289209,-0.2892 0,-0.0482 0.02156,-0.1015 0,-0.14461 -0.08676,-0.17352 -0.347051,-0.26029 -0.433814,-0.43381 -0.02156,-0.0431 0.02156,-0.10149 0,-0.14461 -0.03048,-0.061 -0.106792,-0.0879 -0.144604,-0.1446 -0.35018,-0.52527 0.04234,-0.10226 -0.289209,-0.43382 -0.0482,-0.0482 -0.0964,-0.0964 -0.144605,-0.1446 -0.0482,-0.0482 -0.114119,-0.0836 -0.144604,-0.1446 -0.02156,-0.0431 0,-0.0964 0,-0.14461 -0.144605,-0.1446 -0.289209,-0.28921 -0.433814,-0.43381 z"
         id="path198" />
    </clipPath>
  </defs>
  <metadata
     id="metadata78">
    <rdf:RDF>
      <cc:Work
         rdf:about="">
        <dc:format>image/svg+xml</dc:format>
        <dc:type
           rdf:resource="http://purl.org/dc/dcmitype/StillImage" />
        <dc:title></dc:title>
      </cc:Work>
    </rdf:RDF>
  </metadata>
  <g
     id="layer1">
    <path
       transform="matrix(0.26458333,0,0,0.26458333,35.697627,76.177608)"
       style="fill:#000000;stroke-width:0.31999999"
       d="m 93.981578,286.5663 c -6.207327,-1.28486 -11.722975,-5.38647 -12.828745,-9.53986 -0.671577,-2.52252 -0.594272,-4.61169 0.188746,-5.10069 0.5344,-0.33374 0.64,-0.74625 0.64,-2.50007 0,-1.78358 0.144656,-2.32847 0.959104,-3.61272 0.527507,-0.83179 1.175507,-1.59539 1.44,-1.69689 0.264493,-0.10149 0.480896,-0.50752 0.480896,-0.90228 0,-0.87687 1.667437,-3.24992 2.462323,-3.50431 0.317722,-0.10169 0.975088,-0.81524 1.460809,-1.58568 1.091309,-1.731 3.383591,-4.36379 3.799412,-4.36379 0.485657,0 1.856156,-1.70072 1.867343,-2.31729 0.0056,-0.30651 0.298112,-0.73715 0.650112,-0.95697 0.751005,-0.46901 0.856253,-1.9079 0.18057,-2.46867 -0.252688,-0.20971 -0.552128,-0.80334 -0.665427,-1.31918 -0.134583,-0.61276 -0.405312,-0.93789 -0.780944,-0.93789 -0.316224,0 -1.42384,-0.81384 -2.461373,-1.80853 l -1.886419,-1.80853 -2.176381,-0.0315 c -2.122604,-0.0307 -2.206828,-0.0641 -3.408809,-1.35293 -0.728704,-0.78134 -1.381632,-1.89308 -1.597472,-2.72 -0.200771,-0.76919 -0.499747,-1.84076 -0.66439,-2.38126 -0.164647,-0.54051 -0.299354,-1.35088 -0.299354,-1.80083 0,-0.44995 -0.216,-0.99736 -0.48,-1.21646 -0.264,-0.2191 -0.48,-0.59673 -0.48,-0.83918 0,-0.30141 -0.407315,-0.44082 -1.28792,-0.44082 -1.417955,0 -1.712886,0.40161 -2.107587,2.86994 -0.186602,1.16694 -0.110186,1.31338 1.439222,2.75806 1.457024,1.35855 1.636285,1.67021 1.636285,2.84485 0,1.72082 -0.423254,2.08715 -2.411485,2.08715 -1.37502,0 -1.87422,-0.17662 -3.056,-1.08125 -0.776883,-0.59468 -2.636515,-1.48827 -4.132515,-1.98577 -1.496,-0.49748 -2.9,-1.03656 -3.12,-1.19794 -0.222115,-0.16292 -0.4,-0.96547 -0.4,-1.80463 0,-2.1037 0.593354,-2.57041 3.267876,-2.57041 1.828358,0 2.118953,-0.0821 2.264844,-0.64 0.197719,-0.75609 -0.171161,-0.83664 -0.73272,-0.16 -0.533372,0.64267 -2.99087,0.63756 -3.526086,-0.007 -0.287293,-0.34617 -0.34537,-1.12305 -0.20049,-2.6819 0.161722,-1.74006 0.104823,-2.27685 -0.274729,-2.59185 -0.671719,-0.55748 -0.670698,-4.56121 0.0013,-5.11892 0.332269,-0.27576 0.48,-1.00931 0.48,-2.3834 0,-1.66119 0.120829,-2.09855 0.740624,-2.68082 0.407344,-0.38268 1.151344,-0.69578 1.653335,-0.69578 1.928672,0 0.409469,-0.37238 -2.759872,-0.67649 -1.822746,-0.17489 -4.466086,-0.53158 -5.874086,-0.79262 -3.648224,-0.67638 -8.839216,-1.13335 -9.250512,-0.81434 -0.546954,0.42424 -3.220809,1.00345 -4.632304,1.00345 -0.703677,0 -1.368409,0.144 -1.477184,0.32 -0.108774,0.176 -0.764022,0.32 -1.456112,0.32 -0.9465,0 -1.62381,-0.27897 -2.73302,-1.12565 -1.4314,-1.09261 -1.53462,-1.1195 -3.5174,-0.91636 -1.39248,0.14267 -2.18907,0.0878 -2.50247,-0.17227 -0.27871,-0.23131 -0.54809,-1.32431 -0.68409,-2.77566 -0.1856,-1.9806 -0.13431,-2.49359 0.29696,-2.97014 0.48385,-0.53465 0.47514,-0.61783 -0.12127,-1.15758 -0.78045,-0.70629 -0.89477,-3.07469 -0.17717,-3.67025 0.35907,-0.298 0.42155,-0.85619 0.27342,-2.44251 -0.26157,-2.80111 0.20426,-3.32958 2.93496,-3.32958 2.04829,0 6.24432,1.22276 7.23139,2.10728 0.727797,0.65219 0.852178,0.58918 1.554533,-0.78755 0.847005,-1.66027 2.493188,-2.59973 4.555402,-2.59973 1.458845,0 1.728528,0.1184 2.733123,1.2 l 1.114573,1.2 -0.151239,2.8 -0.151238,2.8 h 1.836147 c 1.009882,0 2.539802,0.12882 3.399824,0.28628 0.860022,0.15745 3.147677,0.37188 5.083677,0.4765 3.355187,0.18132 3.461695,0.16796 2.274764,-0.28519 -2.827436,-1.07947 -7.354185,-4.84481 -8.653075,-7.19759 -0.884121,-1.60148 -2.131116,-5.03632 -2.439654,-6.72 -0.452755,-2.47067 -0.341437,-8.31363 0.204234,-10.72 0.693619,-3.05882 0.661273,-2.99928 3.069206,-5.64958 1.174509,-1.29273 2.76303,-3.09694 3.530041,-4.00934 1.622487,-1.93004 2.720733,-2.85158 3.615885,-3.03409 0.928678,-0.18934 0.753347,-0.72512 -2.234112,-6.82699 -1.464877,-2.992 -2.969513,-6.16 -3.343641,-7.04 -0.532887,-1.25343 -0.954541,-1.73189 -1.946573,-2.20888 -2.071734,-0.99611 -2.353418,-1.48837 -2.147997,-3.75379 0.149565,-1.64941 0.340615,-2.13472 1.164848,-2.95895 0.895565,-0.89557 1.207853,-0.99715 3.407021,-1.1082 2.193113,-0.11075 2.497549,-0.0511 3.233129,0.63378 0.766013,0.71318 0.80393,0.89957 0.668883,3.28821 -0.13006,2.30043 -0.04979,2.75438 0.877069,4.96 0.561127,1.33531 1.664535,3.65183 2.452016,5.14783 1.299415,2.46852 2.439379,4.66965 3.188019,6.15565 0.153965,0.30562 0.279936,0.84836 0.279936,1.2061 0,0.55503 0.129088,0.61487 0.88,0.40793 1.393031,-0.38389 8.450288,-0.23318 10.68648,0.22821 2.058006,0.42463 4.226512,1.32828 4.586918,1.91143 0.108253,0.17515 1.144157,0.78921 2.30201,1.36457 1.965081,0.97649 2.246255,1.25907 4.224889,4.24611 l 2.119702,3.2 1.750309,-0.0992 c 0.962658,-0.0545 1.926818,-0.24566 2.142578,-0.42473 0.21576,-0.17906 0.56659,-1.10445 0.77964,-2.05643 0.21304,-0.95197 0.65288,-1.97117 0.97741,-2.26486 0.93146,-0.84296 0.71074,-1.63061 -0.70788,-2.52615 -0.86706,-0.54734 -1.49567,-1.28062 -1.89352,-2.20876 -0.32756,-0.76417 -0.75148,-1.48576 -0.94205,-1.60354 -0.19057,-0.11777 -0.346478,-1.04732 -0.346478,-2.06565 0,-2.42779 0.505638,-2.91071 3.047678,-2.91071 1.57221,0 2.01458,0.13152 2.72205,0.80932 l 0.84476,0.80933 1.50478,-3.12933 c 1.83328,-3.81246 2.04407,-4.19002 3.8019,-6.80932 l 1.3959,-2.08 1.7703,-0.0944 c 1.28976,-0.0688 1.88097,0.0389 2.17806,0.39689 0.59146,0.71268 0.8431,4.52481 0.33879,5.13247 -0.25199,0.30363 -0.27529,0.48509 -0.0623,0.48509 0.18716,0 0.42929,-0.144 0.53807,-0.32 0.28087,-0.45446 4.11111,-0.40089 4.576,0.064 0.4643,0.4643 0.50069,2.57333 0.0703,4.07402 -0.17253,0.60159 -0.71067,1.50815 -1.19585,2.01457 l -0.88216,0.92077 2.16122,-0.22142 c 2.76925,-0.28372 3.43049,0.18642 3.43049,2.43911 0,1.39079 -0.10891,1.60094 -1.36,2.62445 -1.44984,1.1861 -3.78566,2.48488 -4.46726,2.48391 -0.30219,-3.2e-4 -0.3843,0.50208 -0.30653,1.87616 0.0974,1.72147 0.0343,1.93332 -0.76316,2.56058 -0.62856,0.49443 -1.32276,0.68482 -2.50621,0.68737 -0.90027,0.002 -2.17684,0.0928 -2.83684,0.20187 -1.06621,0.17623 -1.2,0.30214 -1.2,1.12922 0,0.51199 -0.288,1.49541 -0.64,2.18539 -0.80715,1.58214 -0.80539,2.26343 0.009,3.29814 1.09187,1.38809 1.59148,2.98782 1.59148,5.09585 0,1.78053 -0.13498,2.2185 -1.16198,3.77028 -0.63909,0.96565 -1.60334,2.22373 -2.14277,2.79573 -0.64402,0.6829 -0.81939,1.04 -0.51072,1.04 0.25854,0 1.23535,0.504 2.1707,1.12 0.93535,0.616 1.79607,1.12189 1.9127,1.1242 0.32659,0.007 4.58479,3.68955 4.88414,4.22447 0.14562,0.26021 0.35887,1.61121 0.47389,3.00222 0.19143,2.31504 0.15179,2.5807 -0.46841,3.1387 -0.37265,0.33528 -0.67755,0.73919 -0.67755,0.89758 0,0.49852 -3.21811,4.62651 -4.1088,5.27049 -0.46816,0.33849 -2.898,1.61599 -5.39965,2.83889 l -4.54844,2.22345 -0.0116,1.66111 c -0.007,0.98917 0.15026,1.76584 0.38845,1.92 0.22,0.14239 2.29208,0.22495 4.60462,0.18346 4.4172,-0.0792 4.73992,0.0116 4.96472,1.39777 0.12478,0.76943 -0.0723,0.84692 6.0976,-2.3974 4.26947,-2.245 5.154,-2.72392 6.43638,-3.48494 0.84396,-0.50084 1.72395,-0.72 2.89097,-0.72 1.7341,0 2.44571,0.37906 2.44571,1.30277 0,0.39868 0.39925,0.58774 1.56882,0.74289 1.5591,0.20682 7.83994,3.15248 9.04266,4.24093 0.32611,0.29512 0.90972,0.69452 1.2969,0.88756 0.38719,0.19303 0.78219,0.65404 0.8778,1.02445 0.17473,0.67699 4.78286,4.77417 6.25669,5.56294 0.63023,0.33729 1.22612,0.34926 2.95333,0.0593 1.19009,-0.19977 3.70866,-0.51723 5.59685,-0.70547 1.88818,-0.18823 3.93555,-0.5522 4.54972,-0.80882 0.61416,-0.25661 1.51729,-0.46665 2.00694,-0.46673 0.48966,-9e-5 1.64783,-0.28809 2.57371,-0.64 2.07103,-0.78716 4.93883,-0.85598 5.53892,-0.13292 0.23139,0.27881 0.47997,1.32625 0.55241,2.32763 0.12446,1.72065 0.0397,1.97856 -1.54207,4.69308 -0.92056,1.5798 -1.86528,3.22422 -2.09936,3.65426 -0.76686,1.40885 -6.75265,6.73811 -7.5682,6.73811 -0.13866,0 -0.86253,0.27507 -1.60861,0.61127 -2.01344,0.90729 -5.30216,1.87899 -7.11652,2.10267 -1.83998,0.22684 -7.52075,-0.3467 -7.97969,-0.80564 -0.16956,-0.16957 -0.59616,-0.3083 -0.94799,-0.3083 -0.35183,0 -1.29503,-0.69656 -2.096,-1.5479 -1.89127,-2.0102 -2.47329,-2.2921 -4.73249,-2.2921 -1.70453,0 -1.97287,-0.0976 -2.90104,-1.05524 -0.56253,-0.58037 -1.02278,-1.30037 -1.02278,-1.6 0,-0.29962 -0.23111,-0.54476 -0.51359,-0.54476 -0.28247,0 -1.17144,-0.44398 -1.97547,-0.98662 -0.84792,-0.57225 -1.87537,-0.9864 -2.44642,-0.98612 -1.87161,9.6e-4 -6.10566,0.45309 -6.42451,0.68607 -0.176,0.12859 -0.78866,0.39144 -1.36146,0.5841 -0.5728,0.19266 -1.8328,0.87556 -2.8,1.51755 -1.52547,1.01254 -1.75854,1.30378 -1.75854,2.19736 0,0.56656 -0.15628,1.87548 -0.34728,2.9087 -0.29472,1.59428 -0.60819,2.16689 -2.07137,3.78377 -0.94826,1.04785 -2.37598,3.05578 -3.17273,4.46206 -1.2614,2.2264 -1.44862,2.79865 -1.44862,4.42762 0,1.69268 -0.0838,1.92369 -0.88,2.42683 -0.484,0.30584 -1.888,1.42516 -3.12,2.48737 -1.232,1.06222 -2.46974,2.07531 -2.75052,2.25131 -0.81364,0.51001 -4.457438,3.25212 -6.280626,4.72644 l -1.671142,1.35138 1.671142,1.69718 c 1.963948,1.99455 4.553466,3.494 6.791146,3.93239 2.19371,0.42978 4.08088,0.98825 4.56,1.34943 0.23261,0.17536 0.4,1.01823 0.4,2.01421 0,1.65854 -0.0596,1.77359 -1.8867,3.64082 -1.03768,1.06048 -2.16088,1.92815 -2.496,1.92815 -0.33512,0 -0.75987,0.15056 -0.94389,0.33459 -0.3474,0.3474 -5.194806,0.95834 -7.153417,0.90158 -0.616,-0.0179 -1.984,-0.2113 -3.04,-0.42988 z m -3.544332,-17.16593 c 1.009078,-1.18878 5.071385,-4.73419 7.578729,-6.61439 0.773082,-0.57971 2.606165,-1.98371 4.073525,-3.12 l 2.66791,-2.06597 h -1.24391 c -1.63732,0 -2.01192,-0.44224 -2.01192,-2.3752 0,-1.54589 -0.019,-1.58007 -0.49815,-0.896 -0.37156,0.53048 -0.81879,0.7112 -1.759996,0.7112 -0.737961,0 -1.261856,0.15285 -1.261856,0.36817 0,0.20248 -0.828,1.178 -1.84,2.16781 -1.012,0.98981 -2.335731,2.51614 -2.941622,3.39184 -1.683142,2.43265 -2.626278,3.35218 -3.438246,3.35218 -0.543613,0 -0.740131,0.18236 -0.740131,0.68682 0,0.37774 -0.648,1.37957 -1.44,2.22628 -1.488307,1.59113 -1.826618,2.76767 -0.994429,3.45833 0.245066,0.20338 0.624522,0.80181 0.843238,1.32983 l 0.397664,0.96005 0.812429,-1.21065 c 0.446838,-0.66587 1.255382,-1.7325 1.796765,-2.3703 z m 11.088464,-22.46422 c -0.18927,-0.18928 -0.34413,-0.61875 -0.34413,-0.95438 0,-0.42498 -0.15366,-0.55127 -0.50618,-0.416 -0.27839,0.10683 -0.63839,0.19424 -0.799998,0.19424 -0.30358,0 -0.41619,1.37097 -0.13564,1.65151 0.087,0.087 0.601848,0.0931 1.144128,0.0135 0.70341,-0.10323 0.88734,-0.24332 0.64182,-0.48884 z m 11.28296,-1.81983 c 0.1469,-0.13337 0.2189,-0.52198 0.16,-0.86357 -0.10036,-0.58204 -0.2378,-0.55573 -2.18709,0.41871 l -2.08,1.03979 1.92,-0.17621 c 1.056,-0.0969 2.04019,-0.28535 2.18709,-0.41872 z m -7.21105,-3.83519 c 0.75682,-0.23878 1.44955,-0.5531 1.5394,-0.69848 0.0899,-0.14538 0.83864,-0.56528 1.66396,-0.93311 0.82533,-0.36783 2.24768,-1.01545 3.16078,-1.43916 0.9131,-0.4237 1.79547,-0.77037 1.96082,-0.77037 0.16534,0 0.47645,-0.21185 0.69134,-0.47078 0.36795,-0.44335 1.36454,-0.99463 6.42016,-3.55142 1.15088,-0.58204 2.35278,-1.34585 2.6709,-1.69737 0.56756,-0.62714 0.55232,-0.64552 -0.8125,-0.98023 -2.56369,-0.62872 -3.61936,-1.34009 -3.73228,-2.51498 -0.0884,-0.91951 -0.19097,-1.02739 -0.8,-0.84123 -0.38424,0.11746 -1.34662,0.70329 -2.13862,1.30185 -0.792,0.59857 -1.97854,1.33712 -2.63675,1.64123 -0.67621,0.31243 -1.19816,0.78413 -1.2,1.08448 -0.003,0.52635 -1.71341,2.18845 -2.25176,2.18845 -0.15368,0 -0.91951,0.432 -1.70186,0.96 -1.14508,0.7728 -1.75971,0.96 -3.15204,0.96 -0.95128,0 -1.88693,-0.15734 -2.07924,-0.34965 -0.25286,-0.25286 -0.55532,-0.23957 -1.09265,0.048 -0.40866,0.2187 -2.04412,0.70727 -3.634358,1.08569 l -2.891344,0.68805 -0.102816,1.10395 c -0.05655,0.60717 -0.22519,1.22939 -0.374758,1.38271 -0.152045,0.15585 0.359296,0.6144 1.159747,1.04 1.156301,0.61481 1.913325,0.76124 3.935579,0.76124 1.84436,0 2.60967,0.12747 2.90552,0.48394 0.23659,0.28508 0.54857,0.37452 0.75918,0.21765 0.19665,-0.14647 0.97677,-0.46168 1.73359,-0.70047 z m 46.94394,-1.28112 0.96,-0.24428 -1.136,-0.0379 c -0.6248,-0.0208 -1.3088,-0.21066 -1.52,-0.42186 -0.49785,-0.49786 -0.49785,-3.21414 0,-3.712 0.29867,-0.29867 0.12539,-0.384 -0.77977,-0.384 -1.77277,0 -5.45211,-2.67435 -11.77677,-8.56 -2.04403,-1.90215 -2.70759,-2.07928 -2.96514,-0.79151 -0.27315,1.36573 -1.31402,2.46492 -3.17103,3.34869 -2.57489,1.22542 -3.40275,1.52044 -4.34633,1.54892 l -0.86494,0.0261 1.0155,0.44482 c 0.55853,0.24465 1.10703,0.5929 1.21889,0.7739 0.11185,0.18099 0.69038,0.32907 1.28561,0.32907 0.59522,0 1.17122,0.144 1.28,0.32 0.10877,0.176 0.60364,0.32 1.0997,0.32 0.49606,0 1.07508,0.20864 1.28671,0.46364 0.21163,0.25499 0.91326,0.63477 1.55918,0.84395 1.72325,0.55808 3.97309,1.60866 4.6144,2.15476 0.308,0.26227 0.56,0.81453 0.56,1.22725 0,0.591 0.17333,0.7504 0.8159,0.7504 0.44874,0 1.27674,0.24603 1.84,0.54674 1.8183,0.97072 6.98059,1.57325 9.02409,1.05326 z M 94.177566,227.50699 c 1.676137,-0.68989 2.852854,-1.45489 4.044012,-2.62907 1.673514,-1.64966 1.680004,-1.66383 1.680004,-3.67132 0,-1.1084 -0.12772,-2.26532 -0.28381,-2.57093 -0.15609,-0.30562 -0.754008,-1.56366 -1.328696,-2.79566 -0.574688,-1.232 -1.164826,-2.456 -1.311418,-2.72 -0.146595,-0.264 -0.469987,-0.93043 -0.718656,-1.48094 -0.560505,-1.24088 -1.157424,-1.66167 -1.157424,-0.81592 0,0.3415 0.451095,1.06195 1.002436,1.60098 0.919763,0.89924 0.989696,1.11261 0.847993,2.58736 -0.209737,2.18275 -0.651926,2.6421 -2.429622,2.52393 -1.375082,-0.0914 -1.632205,-0.27753 -2.121242,-1.53541 -0.102636,-0.264 -0.437027,-0.85303 -0.743088,-1.30896 -0.306064,-0.45593 -0.946643,-1.41582 -1.42351,-2.1331 -0.476867,-0.71728 -1.016867,-1.39675 -1.2,-1.50993 -0.183133,-0.11318 -0.332966,-0.57408 -0.332966,-1.02422 0,-0.69259 -0.110714,-0.78877 -0.72,-0.62549 -0.396,0.10613 -1.08,0.19478 -1.52,0.197 l -0.8,0.004 0.09921,6.00033 c 0.08738,5.2848 0.178311,6.16595 0.76256,7.38928 0.536186,1.12268 0.625779,1.74844 0.467351,3.26422 l -0.196007,1.87528 1.833443,0.11526 c 1.008397,0.0634 2.137642,0.1425 2.509434,0.17578 0.371795,0.0333 1.739795,-0.37735 3.04,-0.91251 z m 0.988012,-5.17098 c -0.497382,-0.49738 -0.497382,-2.89462 0,-3.392 0.2112,-0.2112 0.9744,-0.384 1.696,-0.384 1.650595,0 2.08,0.4294 2.08,2.08 0,1.65059 -0.429405,2.08 -2.08,2.08 -0.7216,0 -1.4848,-0.1728 -1.696,-0.384 z m 32.205722,3.37383 c 0.46765,-0.11408 1.16579,-0.45151 1.55141,-0.74984 0.68166,-0.52736 0.65698,-0.53818 -0.88888,-0.38964 -1.1783,0.11322 -1.73803,0.0188 -2.16169,-0.36459 -0.52763,-0.4775 -0.66232,-0.47117 -1.74763,0.0822 -0.86754,0.4423 -1.07195,0.6817 -0.77944,0.91284 0.6204,0.49023 2.27149,1.00279 2.74623,0.85253 0.23636,-0.0748 0.81236,-0.22936 1.28,-0.34345 z M 108.38326,208.1781 c 0.70492,-0.58908 1.72618,-1.69814 2.26946,-2.46457 0.84983,-1.19889 0.94881,-1.53903 0.7087,-2.43535 -0.35247,-1.31574 -2.06886,-2.48719 -4.36192,-2.97706 -0.93615,-0.19999 -1.75645,-0.30926 -1.82288,-0.24282 -0.3228,0.32279 -0.22598,2.83791 0.14359,3.73011 0.2811,0.67866 0.37477,1.99334 0.28623,4.01767 l -0.1316,3.00893 0.81337,-0.78293 c 0.44735,-0.4306 1.39012,-1.2649 2.09505,-1.85398 z m -27.755943,-6.57809 c 0.283961,-0.4547 0.294748,-0.64 0.03725,-0.64 -0.629795,0 -5.51888,-2.28843 -6.581638,-3.08066 -1.557082,-1.16072 -2.24945,-1.01813 -2.393552,0.49294 -0.114314,1.1987 -0.06063,1.28084 1.25495,1.92 0.755904,0.36724 1.528758,0.66772 1.71745,0.66772 0.188694,0 0.796841,0.20973 1.35144,0.46608 0.554598,0.25635 1.584361,0.52014 2.288361,0.58621 0.704,0.0661 1.42536,0.14433 1.603024,0.17392 0.177664,0.0296 0.502886,-0.23421 0.722715,-0.58621 z m 4.394262,-0.32 c 0.108774,-0.176 -0.03523,-0.32 -0.32,-0.32 -0.284775,0 -0.428775,0.144 -0.32,0.32 0.108774,0.176 0.252774,0.32 0.32,0.32 0.06723,0 0.211225,-0.144 0.32,-0.32 z m 4.175974,-1.8363 c 0.607565,-0.0864 1.090739,-0.40016 1.28,-0.83124 0.167213,-0.38085 0.628026,-0.73848 1.024026,-0.79472 0.913433,-0.12973 0.978422,-1.34241 0.101296,-1.89018 -0.549687,-0.34328 -0.683549,-0.25371 -1.2,0.80303 -0.518436,1.06078 -0.728368,1.20005 -1.941296,1.28781 -1.281171,0.0927 -1.36,0.15496 -1.36,1.07423 0,0.80861 0.09597,0.9342 0.56,0.73284 0.308,-0.13365 0.999187,-0.30545 1.535974,-0.38177 z m 13.391917,-8.4037 c 0.4927,-1.848 1.02548,-3.61005 1.18396,-3.91566 0.15848,-0.30561 0.27678,-0.88161 0.26288,-1.28 -0.0219,-0.62791 -0.0713,-0.59736 -0.37126,0.22943 -0.19029,0.52457 -0.64812,1.53257 -1.0174,2.24 -0.57296,1.09762 -0.8419,1.30049 -1.83403,1.38347 -1.159878,0.097 -1.163118,0.10152 -1.381048,1.92 -0.120136,1.00252 -0.28276,2.11076 -0.361381,2.46276 -0.102378,0.45835 0.154125,0.83077 0.903721,1.31215 l 1.046668,0.67215 0.33603,-0.83215 c 0.18482,-0.45768 0.73916,-2.34415 1.23186,-4.19215 z m -22.527891,2.72 c 0,-0.6077 -0.167014,-0.8 -0.694803,-0.8 -1.201744,0 -1.865197,-0.90548 -1.865197,-2.5456 0,-1.71032 0.40159,-2.2544 1.664,-2.2544 0.85689,0 0.896,-0.067 0.896,-1.536 0,-1.7984 0.391674,-2.304 1.784819,-2.304 0.559248,0 1.19608,-0.216 1.415181,-0.48 0.243085,-0.2929 0.944397,-0.48 1.799181,-0.48 h 1.400819 l -2.59e-4,-1.52 c -2.88e-4,-1.67691 -1.052324,-4.86686 -1.412746,-4.28368 -0.123622,0.20002 -0.844848,0.36368 -1.602726,0.36368 -0.893418,0 -1.664061,0.22505 -2.191587,0.64 -0.504996,0.39723 -1.29817,0.64 -2.090999,0.64 -1.320544,0 -3.676668,1.31929 -5.581683,3.12541 -0.789433,0.74846 -0.878662,1.05046 -0.866995,2.93446 0.01149,1.85437 0.123824,2.22977 0.96,3.20804 0.720896,0.84339 0.946995,1.4266 0.946995,2.44268 0,0.98624 0.146224,1.38386 0.56,1.5228 0.308,0.10341 0.776,0.32499 1.04,0.49239 0.974506,0.61794 3.05217,1.59201 3.44,1.61279 0.22,0.0118 0.4,-0.33857 0.4,-0.77857 z m 10.597779,-6.02445 c -0.468515,-0.46851 -0.677779,-0.5401 -0.677779,-0.23186 0,0.64058 1.071312,1.76237 1.229593,1.28753 0.06928,-0.20784 -0.179037,-0.68289 -0.551814,-1.05567 z m -23.973779,-2.77555 h 1.216 v -2.36082 c 0,-1.62387 -0.138697,-2.47593 -0.444323,-2.72958 -0.244381,-0.20281 -0.542134,-1.15157 -0.661677,-2.10836 -0.200992,-1.60868 -0.263136,-1.711 -0.825801,-1.35961 -0.334646,0.20899 -0.69967,0.7953 -0.811158,1.3029 -0.118932,0.54149 -0.575191,1.1367 -1.103972,1.44018 -0.495696,0.28449 -0.971459,0.88131 -1.057251,1.32627 -0.08579,0.44496 -0.258243,1.13302 -0.383222,1.52902 -0.192752,0.61073 -0.109879,0.72 0.546083,0.72 1.072403,0 1.541322,0.57438 1.541322,1.888 0,0.87111 0.08533,1.03466 0.384,0.736 0.2112,-0.2112 0.9312,-0.384 1.599999,-0.384 z m 26.953945,-4.76137 c -0.306576,-0.81325 -0.900361,-1.89202 -1.319523,-2.39726 -0.419165,-0.50525 -0.952912,-1.36925 -1.186102,-1.92 -0.233194,-0.55076 -0.735044,-1.27857 -1.11522,-1.61736 l -0.691232,-0.61599 0.530749,1.25599 c 0.302195,0.71512 0.599616,2.53065 0.690669,4.21599 l 0.15992,2.96 h 1.015235 c 0.558381,0 1.294759,0.20627 1.636397,0.4584 0.559769,0.41309 0.631805,0.39319 0.728838,-0.20137 0.05922,-0.36287 -0.143155,-1.32515 -0.449731,-2.1384 z M 75.635272,175.1386 c 0.344147,-0.30319 1.054323,-0.43815 1.999638,-0.38002 0.833271,0.0512 1.631831,-0.0757 1.850307,-0.29421 0.211399,-0.2114 0.68282,-0.38436 1.047597,-0.38436 0.541127,0 0.738701,-0.32458 1.073098,-1.7629 0.225421,-0.9696 0.321664,-1.9056 0.213875,-2.08 -0.3088,-0.49965 -5.272688,-0.35219 -6.718208,0.19957 -0.704,0.26873 -2,0.71159 -2.88,0.98415 -0.88,0.27256 -1.96,0.64993 -2.4,0.83861 -0.79784,0.34213 -0.798051,0.34338 -0.0784,0.46427 0.39688,0.0667 1.33288,0.83349 2.08,1.70403 1.212931,1.4133 1.46121,1.56129 2.318403,1.38192 0.528,-0.11049 1.20016,-0.41246 1.493693,-0.67106 z m -30.030759,73.22333 c -0.73539,-0.49854 -1.78426,-1.28272 -2.33083,-1.74263 l -0.99376,-0.83619 -1.18917,0.65965 c -0.65405,0.36281 -1.48645,0.93361 -1.8498,1.26845 -0.7644,0.70443 -3.60497,0.8552 -4.23537,0.2248 -0.54406,-0.54406 -0.4767,-3.18125 0.10238,-4.008 0.4671,-0.66688 0.43856,-0.70768 -0.72,-1.02942 -0.66351,-0.18426 -1.42958,-0.33582 -1.70238,-0.3368 -0.8613,-0.003 -1.264,-0.7219 -1.264,-2.25618 0,-1.0212 0.17527,-1.63519 0.56,-1.96177 1.04307,-0.88543 3.43586,-1.54383 5.6107,-1.54383 h 2.1493 v -1.30964 c 0,-1.44791 1.43177,-5.8915 2.18148,-6.77036 0.65128,-0.76348 3.63272,-0.78554 4.25934,-0.0315 0.299318,0.36018 0.439177,1.43 0.439177,3.35939 v 2.83091 l 0.861114,6.4e-4 c 0.473613,3.2e-4 0.941776,0.13112 1.040358,0.29063 0.09858,0.15951 0.896365,0.38865 1.772851,0.5092 2.396512,0.3296 3.205677,1.11552 3.205677,3.11355 0,1.48685 -0.11215,1.73301 -1.307709,2.87032 -0.719241,0.6842 -1.735379,1.32953 -2.258083,1.43407 l -0.950371,0.19007 0.81808,0.8539 c 0.674605,0.70413 0.818083,1.1623 0.818083,2.61238 0,0.96717 -0.1728,1.93129 -0.384,2.14249 -0.730013,0.73001 -3.186054,0.44689 -4.633067,-0.53408 z m -0.74293,-7.72192 c 0,-0.51018 -0.21096,-0.63856 -1.04,-0.63288 l -1.04,0.007 0.8,0.62578 c 1.01781,0.79614 1.28,0.79614 1.28,0 z m -2.78728,-1.6 c -0.0921,-0.352 -0.36657,-0.64 -0.61004,-0.64 -0.24348,0 -0.44268,0.288 -0.44268,0.64 0,0.41619 0.21333,0.64 0.61004,0.64 0.4525,0 0.56682,-0.16528 0.44268,-0.64 z M 218.14156,189.052 c -2.36662,-0.56785 -7.22502,-3.17801 -9.23999,-4.96414 -1.27347,-1.12884 -1.033,-1.14444 -4.27652,0.27747 -0.74608,0.32707 -1.51585,0.59468 -1.7106,0.59468 -0.19475,0 -0.78304,0.30544 -1.30732,0.67876 -0.63897,0.45498 -1.63306,0.73333 -3.01527,0.84428 -2.58005,0.2071 -3.32774,-0.30686 -3.33525,-2.29264 -0.004,-1.14576 0.16654,-1.45997 1.36,-2.50085 1.1829,-1.03168 1.27109,-1.19173 0.66124,-1.2 -0.41783,-0.006 -1.04288,-0.45422 -1.53858,-1.10411 -0.68166,-0.89371 -0.81676,-1.37619 -0.73628,-2.62938 0.0849,-1.32139 0.24232,-1.6314 1.13226,-2.2293 1.0513,-0.70631 4.88452,-1.72676 6.48638,-1.72676 0.48486,0 1.06083,-0.216 1.27993,-0.48 0.2191,-0.264 0.81274,-0.48 1.31918,-0.48 0.50645,0 0.92082,-0.14533 0.92082,-0.32295 0,-0.36691 2.51913,-6.38743 2.87752,-6.87705 0.12883,-0.176 0.33731,-0.752 0.46329,-1.28 0.38341,-1.60694 1.04515,-2.08 2.9096,-2.08 2.33334,0 2.55396,0.38098 3.05758,5.28 0.57126,5.55695 0.58457,5.59438 2.21201,6.21865 1.23707,0.47452 3.81565,1.67988 5.44,2.54293 0.264,0.14027 0.912,0.46302 1.44,0.71723 0.85461,0.41145 0.97042,0.63981 1.05494,2.08011 0.13056,2.22513 0.0465,2.28344 -4.69601,3.25875 l -1.08107,0.22233 1.53719,1.70943 c 1.35407,1.5058 1.55427,1.9155 1.68065,3.43951 0.0918,1.10743 -4e-5,1.90301 -0.2553,2.21057 -0.45118,0.54365 -2.58304,0.58613 -4.6404,0.0925 z m -3.96781,-10.5372 c 0.3343,-0.46948 0.60781,-0.93284 0.60781,-1.02969 0,-0.0969 -0.54,-0.2734 -1.2,-0.39233 -1.5716,-0.28318 -2,-0.65869 -2,-1.75307 0,-0.49606 -0.144,-0.99093 -0.32,-1.0997 -0.176,-0.10878 -0.32,0.0287 -0.32,0.30545 0,0.54218 -0.52739,1.59499 -1.24959,2.49455 -0.52128,0.64927 -2.88416,0.77825 -3.47285,0.18956 -0.28058,-0.28058 -0.49111,-0.27029 -0.86794,0.0425 -0.92184,0.76506 0.043,1.23153 3.03058,1.46524 2.46083,0.19251 2.9803,0.34068 3.89942,1.11223 1.03711,0.87059 1.06285,0.87508 1.17257,0.20451 0.0617,-0.37709 0.38571,-1.06974 0.72,-1.53921 z m -12.67219,-40.88893 -0.96,-0.56736 0.0997,-4.12925 c 0.0895,-3.7059 0.44377,-6.2522 1.35897,-9.76638 0.5159,-1.98099 0.37979,-12.59569 -0.17866,-13.93223 -0.57574,-1.37796 -0.63117,-3.99147 -0.096,-4.52665 0.61445,-0.61445 3.58455,-0.48595 4.18832,0.18121 0.74467,0.82285 1.22854,4.39918 1.29203,9.54951 l 0.0557,4.51472 0.96,-0.31414 c 0.528,-0.17278 1.54946,-0.46791 2.26992,-0.65586 1.14007,-0.2974 1.40403,-0.54685 2.03572,-1.9238 0.59396,-1.29471 0.72085,-2.10782 0.69855,-4.47629 -0.0157,-1.66942 0.12118,-3.07302 0.32347,-3.31677 0.20152,-0.24281 1.0048,-0.42258 1.8883,-0.42258 1.27994,0 1.64872,0.14129 2.20082,0.84316 0.55692,0.70802 0.66322,1.2948 0.66322,3.66111 0,1.54988 -0.144,2.90696 -0.32,3.01573 -0.176,0.10878 -0.32,0.45965 -0.32,0.77971 0,0.32006 -0.216,0.76119 -0.48,0.98029 -0.264,0.2191 -0.48,0.74789 -0.48,1.17508 0,0.98887 -0.68785,2.31483 -1.64959,3.17989 -0.85498,0.76902 -4.10564,1.73308 -6.59041,1.95454 -1.23133,0.10974 -1.68,0.2808 -1.68,0.64052 0,0.26993 -0.43571,2.29289 -0.96825,4.49546 -0.53254,2.20258 -0.90825,4.06468 -0.83491,4.13802 0.0733,0.0733 0.43333,-0.28795 0.79998,-0.80286 0.48684,-0.6837 1.03139,-0.99453 2.01903,-1.15246 0.74382,-0.11894 1.50354,-0.33688 1.68828,-0.4843 0.18473,-0.14742 0.83987,-0.35204 1.45587,-0.4547 5.65818,-0.94302 6.97855,-1.20315 8.27299,-1.6299 0.81786,-0.26962 2.58684,-0.64168 3.93108,-0.82679 1.34423,-0.18511 2.92728,-0.47515 3.51788,-0.64453 0.59061,-0.16938 2.11028,-0.30797 3.37705,-0.30797 1.26678,0 2.39223,-0.144 2.501,-0.32 0.10878,-0.176 0.69697,-0.32 1.30711,-0.32 h 1.10933 l -0.50978,-0.9858 c -1.60259,-3.09907 -1.88732,-4.70656 -1.85235,-10.45797 0.0235,-3.86938 0.15196,-5.6664 0.42882,-6 0.60371,-0.72742 3.27639,-0.63235 3.97668,0.14146 0.49373,0.54557 0.53375,1.05935 0.34274,4.4 -0.25186,4.40472 0.0697,6.03348 1.90005,9.62508 0.76955,1.51004 1.66481,2.70656 2.59602,3.46962 1.27686,1.04628 1.42138,1.30322 1.42138,2.52698 0,1.9489 -0.46145,2.21409 -3.3908,1.94864 -3.01169,-0.27291 -10.60218,0.72909 -21.8892,2.88953 -1.32,0.25266 -3.1336,0.59806 -4.03023,0.76756 -2.48007,0.46882 -4.05488,1.10514 -6.68195,2.69987 -2.6674,1.61922 -4.09796,1.82779 -5.76782,0.8409 z m -23.04,-0.0259 c -0.10877,-0.176 -0.73323,-0.32 -1.38768,-0.32 -0.65445,0 -1.52177,-0.23244 -1.92737,-0.51653 -0.65716,-0.4603 -1.10917,-0.47294 -4.15121,-0.11611 -6.03325,0.70768 -6.13223,0.71226 -6.62139,0.30629 -0.27999,-0.23237 -0.47235,-0.94226 -0.47235,-1.74323 0,-1.53302 0.3813,-1.97011 2.53184,-2.90235 1.209,-0.52409 2.15481,-0.60792 6.58357,-0.5835 l 5.17175,0.0285 0.39169,-4.99549 c 0.21543,-2.74752 0.51605,-5.57196 0.66803,-6.27654 0.15198,-0.70458 0.59316,-3.08105 0.9804,-5.28105 0.38724,-2.2 0.82204,-4.288 0.96622,-4.64 0.14419,-0.352 0.32097,-1.37485 0.39284,-2.27301 l 0.13069,-1.63301 -2.26851,0.43492 c -5.28465,1.01317 -6.5028,1.1458 -8.96033,0.97561 -2.32985,-0.16136 -3.92137,-0.51514 -5.30819,-1.17996 -0.62611,-0.30015 -0.82725,-3.07335 -0.27147,-3.74302 0.31806,-0.38324 0.82289,-0.44701 2.33855,-0.2954 6.3568,0.63583 8.87307,0.46035 13.29292,-0.92702 2.42585,-0.76146 5.32566,-0.97236 5.97377,-0.43448 0.42283,0.35092 0.47503,0.86886 0.30737,3.05006 -0.23305,3.03193 -1.04217,7.15435 -1.49261,7.60479 -0.16969,0.16969 -0.30833,0.96372 -0.3081,1.76452 3.2e-4,1.23614 -1.05564,9.43762 -2.23806,17.38194 -0.1773,1.19127 -0.32237,2.99847 -0.32237,4.016 0,1.01754 -0.1728,2.02286 -0.384,2.23406 -0.46364,0.46365 -3.33756,0.51452 -3.616,0.064 z m -34.01599,-8.704 c -0.80631,-0.80631 -0.33272,-7.17298 0.67365,-9.056 0.18812,-0.352 0.52331,-1.504 0.74485,-2.56 0.22155,-1.056 0.714,-2.928 1.09434,-4.16 0.38033,-1.232 0.87815,-3.104 1.10627,-4.16 0.22813,-1.056 0.51471,-2.36782 0.63686,-2.91515 l 0.22209,-0.99516 -2.03103,-0.26036 c -1.11706,-0.14319 -4.94299,-0.27137 -8.50206,-0.28484 l -6.47103,-0.0245 -0.18963,1.44 c -0.1043,0.792 -0.46399,2.664 -0.7993,4.16 -0.33532,1.496 -0.74703,3.69113 -0.91492,4.87806 -0.1679,1.18692 -0.51139,2.57122 -0.76331,3.07623 -0.25193,0.50499 -0.93101,2.77387 -1.50908,5.04194 -0.57807,2.26808 -1.19257,4.30377 -1.36555,4.52377 -0.45018,0.57256 -2.94774,0.5085 -3.44304,-0.0883 -0.73315,-0.8834 -0.1817,-6.20633 1.08049,-10.42958 1.16915,-3.91191 3.03335,-13.02924 3.40877,-16.67144 0.27354,-2.65377 0.6372,-3.13068 2.38722,-3.13068 1.49998,0 2.41042,0.70451 2.41042,1.8652 0,0.50241 0.19937,0.69929 0.72,0.71099 0.39599,0.009 2.40646,0.0761 4.46769,0.14935 2.22006,0.0789 3.82563,0.007 3.93889,-0.17619 0.28435,-0.46009 3.00934,-0.34813 4.47341,0.18379 0.704,0.25578 2.64799,0.63079 4.31999,0.83336 3.48906,0.42271 4.1602,0.82335 4.15957,2.4831 -6.4e-4,1.55289 -0.84463,6.25773 -1.2628,7.03909 -0.18522,0.34608 -0.33677,0.93687 -0.33677,1.31286 0,0.37598 -0.49078,2.22145 -1.09062,4.10103 -0.59984,1.87958 -1.17065,3.77742 -1.26846,4.21742 -0.66746,3.00244 -2.23405,8.5486 -2.50828,8.88 -0.42225,0.5103 -2.88272,0.52191 -3.38863,0.016 z m -83.58399,-0.67016 c -0.718813,-0.36366 -0.8,-0.59863 -0.8,-2.31529 V 124 l 4.570243,-2.27592 c 3.315216,-1.65094 5.292393,-2.42435 7.199999,-2.81643 1.446365,-0.29728 3.997757,-0.95263 5.669757,-1.45633 1.672,-0.5037 4.768,-1.1536 6.88,-1.44422 2.112,-0.29062 4.272,-0.65799 4.8,-0.81639 0.528,-0.15839 2.154294,-0.38633 3.613987,-0.50652 2.920604,-0.24049 3.038937,-0.32968 3.376444,-2.54492 0.399053,-2.61919 -1.427926,-10.27106 -2.595766,-10.87176 -1.356134,-0.69755 -1.674665,-1.18012 -1.674665,-2.53709 0,-1.40553 0.69455,-2.41042 1.666015,-2.41042 0.272589,0 0.680093,-0.22228 0.905562,-0.49395 0.305613,-0.36824 0.906029,-0.47004 2.359184,-0.4 1.666957,0.0803 1.994982,0.19822 2.26512,0.81395 0.215261,0.49066 0.590842,0.72 1.17908,0.72 0.47475,0 1.84461,0.20393 3.04411,0.45316 1.19951,0.24924 4.41293,0.6201 7.14093,0.82413 4.85455,0.36308 6.53123,0.76411 7.35755,1.75977 0.30349,0.36568 0.36108,1.55663 0.22854,4.72591 -0.15444,3.69303 -0.3205,4.67373 -1.29341,7.63832 -0.61391,1.87071 -1.32617,3.81471 -1.58278,4.32 -0.25661,0.50529 -0.7888,1.85471 -1.18266,2.99871 -1.1152,3.23926 -1.36648,3.52 -3.15062,3.52 -0.84074,0 -1.70142,-0.1728 -1.91262,-0.384 -0.89089,-0.89088 -0.30182,-4.54316 1.38321,-8.576 0.478,-1.144 1.07192,-2.8 1.31983,-3.68 1.17795,-4.18138 1.35405,-4.88794 1.52385,-6.11406 l 0.18198,-1.31405 -2.15644,-0.22757 c -1.18604,-0.12516 -3.66843,-0.35258 -5.51643,-0.50536 -1.848,-0.15278 -3.92249,-0.38154 -4.60998,-0.50835 l -1.249988,-0.23057 0.204268,1.08998 c 0.11234,0.59949 0.42267,2.16998 0.6896,3.48998 0.5054,2.49921 0.63151,6.52974 0.28371,9.06726 -0.14052,1.02517 -0.53427,1.86431 -1.287978,2.74485 l -1.085579,1.26826 -3.432026,0.13744 c -1.887616,0.0756 -4.440028,0.3777 -5.672028,0.67137 -1.232,0.29366 -3.392,0.72281 -4.8,0.95366 -1.408,0.23085 -4,0.81075 -5.76,1.28866 -1.76,0.4779 -4.064,1.09261 -5.12,1.36602 -1.056,0.2734 -2.587488,0.84031 -3.403305,1.25979 -0.815818,0.41948 -1.651719,0.76269 -1.857555,0.76269 -0.845092,0 -3.165251,1.3101 -3.661523,2.06751 -0.432186,0.6596 -0.786912,0.81161 -1.884992,0.80778 -0.743943,-0.003 -1.712624,-0.18685 -2.152624,-0.40945 z m 4.224,-14.68984 c -0.221991,-0.22199 -0.384,-1.28551 -0.384,-2.52082 0,-2.57115 0.297334,-2.90757 2.749491,-3.11092 2.322963,-0.19264 3.010508,0.38307 3.010508,2.52079 0,1.17468 -0.190665,1.75244 -0.828444,2.5104 -0.729924,0.86747 -1.026765,0.98455 -2.496,0.98455 -0.917155,0 -1.840355,-0.1728 -2.051555,-0.384 z m 15.305615,-8.72441 c -0.971978,-1.17116 -1.244906,-9.78873 -0.344384,-10.8738 0.551296,-0.664262 3.619821,-0.686462 4.164537,-0.0301 0.567818,0.68418 0.333824,10.11858 -0.26895,10.84388 -0.562061,0.67631 -3.005459,0.71761 -3.551203,0.06 z M 66.704344,96.88 C 66.518831,96.64488 66.307413,91.719098 66.191436,84.929888 l -0.197309,-11.550113 0.734352,-0.689884 c 0.973174,-0.914253 3.693379,-0.97777 4.483504,-0.104692 0.616499,0.681223 0.724636,3.251764 0.160528,3.815872 -0.263492,0.263492 -0.348836,2.734017 -0.29834,8.636277 0.06878,8.03997 -0.16431,10.751722 -1.017958,11.842652 -0.17215,0.22 -0.925734,0.4 -1.674634,0.4 -0.748899,0 -1.503654,-0.18 -1.677235,-0.4 z M 217.11832,72.880003 c -0.36014,-0.396 -1.06924,-1.368001 -1.57578,-2.160001 -0.50654,-0.792 -1.02549,-1.486835 -1.15322,-1.54408 -0.12774,-0.05724 -1.15267,-1.281244 -2.27763,-2.72 -1.12496,-1.438755 -3.18045,-3.866358 -4.56776,-5.394669 -2.83328,-3.121261 -5.15617,-5.96111 -5.87872,-7.187037 -0.71398,-1.211385 -2.68231,-3.314214 -3.10223,-3.314214 -0.2102,0 -0.43868,0.779107 -0.5396,1.84 -0.26661,2.802698 -1.0617,8.716071 -1.66726,12.4 -0.11572,0.704 -0.35497,1.46 -0.53166,1.68 -0.52594,0.654842 -2.93484,0.498199 -3.5974,-0.233926 -0.53299,-0.588944 -0.54626,-0.923856 -0.18699,-4.72 0.21268,-2.247341 0.59253,-5.624266 0.84409,-7.504279 0.66717,-4.98583 0.62194,-5.840381 -0.3426,-6.472368 -0.66853,-0.438039 -0.8,-0.775389 -0.8,-2.052803 0,-0.840743 0.1728,-1.701424 0.384,-1.912624 0.44598,-0.445978 3.9718,-0.52385 4.23771,-0.0936 0.0987,0.159721 1.00721,0.547251 2.01889,0.861171 2.70933,0.84071 4.7399,2.551293 7.73686,6.517658 1.46731,1.941923 2.77032,3.530768 2.89559,3.530768 0.34481,0 1.28695,-1.120887 1.28695,-1.531114 0,-0.198397 0.432,-1.093395 0.96,-1.988886 0.528,-0.895491 0.96,-1.762346 0.96,-1.926349 0,-0.164 0.28746,-0.769664 0.63881,-1.345917 0.4371,-0.716922 0.63918,-1.613757 0.64,-2.840413 0.002,-2.610966 0.94877,-3.933597 2.90868,-4.062275 2.05342,-0.134819 2.58759,0.546297 2.77088,3.533126 0.1396,2.274855 0.12004,2.34778 -0.96676,3.604592 -0.67165,0.776704 -1.1947,1.786637 -1.32583,2.560001 -0.32689,1.927766 -2.13678,5.364707 -3.06578,5.821853 -2.08848,1.027708 -0.87489,4.255382 1.6,4.255382 1.73578,0 2.88,1.382832 2.88,3.480583 0,1.335696 0.18608,1.742396 1.6,3.497059 1.46856,1.822461 1.6,2.124781 1.6,3.679971 0,0.931914 -0.1728,1.867188 -0.384,2.078388 -0.2112,0.2112 -1.0501,0.384 -1.86422,0.384 -1.12769,0 -1.63616,-0.171472 -2.13502,-0.72 z m 32.60724,-3.824001 c -0.2112,-0.2112 -0.384,-1.05838 -0.384,-1.882627 0,-1.394806 0.0976,-1.573261 1.40899,-2.576 1.01952,-0.779562 1.4569,-1.368963 1.5823,-2.132246 0.32325,-1.967588 1.55964,-5.655725 2.68262,-8.00226 0.61517,-1.285424 1.05273,-2.402896 0.97235,-2.483274 -0.0804,-0.08038 -1.23429,0.07889 -2.56424,0.353933 -1.77309,0.366682 -3.64296,0.464141 -7.01006,0.365367 -9.18836,-0.26954 -11.79196,-1.303837 -11.79196,-4.684449 0,-2.091417 1.35054,-3.599369 4.83694,-5.400733 1.47568,-0.76246 3.61906,-2.045008 4.76306,-2.850108 1.144,-0.805098 2.512,-1.554602 3.04,-1.665559 0.70624,-0.148416 0.98868,-0.410073 1.0685,-0.989894 0.0597,-0.433482 0.67634,-1.544151 1.37037,-2.468151 1.17706,-1.567101 1.35364,-1.68 2.6275,-1.68 1.76927,0 2.13363,0.412307 2.13363,2.414403 0,1.240007 -0.15798,1.789373 -0.64,2.225597 -0.352,0.318557 -0.64,0.75993 -0.64,0.980829 0,0.450493 -4.53635,4.619172 -5.02658,4.619172 -0.17282,0 -0.58855,0.307875 -0.92382,0.684166 -0.33528,0.376288 -1.0416,0.884877 -1.5696,1.130192 -0.528,0.245318 -1.392,0.727914 -1.92,1.072438 -0.528,0.344522 -1.284,0.79505 -1.68,1.001168 -0.396,0.206122 -0.72,0.473706 -0.72,0.594631 0,0.120928 1.764,0.310557 3.92,0.421395 3.70269,0.190358 5.68482,0.0088 6.68226,-0.612038 0.24075,-0.14986 1.31572,-0.363981 2.38881,-0.475828 1.07309,-0.111843 2.75618,-0.584227 3.74019,-1.04974 2.15803,-1.020912 4.35075,-1.132352 5.13914,-0.261188 0.80216,0.886378 0.68789,3.014861 -0.22067,4.11025 -0.41265,0.497504 -1.01344,1.624554 -1.3351,2.504554 -0.32166,0.88 -0.68766,1.744 -0.81333,1.92 -0.30894,0.432675 -2.17325,5.02959 -2.9077,7.169674 -0.32791,0.955478 -0.5936,2.616233 -0.5936,3.710403 0,2.153799 -0.54144,3.039923 -1.85746,3.039923 -0.37789,0 -1.15855,0.287463 -1.73481,0.638804 -1.16604,0.710937 -3.42556,0.855366 -4.02373,0.257196 z M 150.96875,45.803995 c -0.12372,-0.200195 -0.49945,-0.363993 -0.83494,-0.363993 -0.90601,0 -2.87224,-1.858125 -2.87224,-2.714327 0,-0.497674 -0.28682,-0.846835 -0.9065,-1.103517 -1.23448,-0.511337 -4.15009,-3.556064 -5.93937,-6.202384 -0.81077,-1.199123 -1.47413,-2.297491 -1.47413,-2.440816 0,-0.143325 -0.19227,-0.420163 -0.42727,-0.615194 -0.23499,-0.19503 -0.62593,-0.968663 -0.86876,-1.719183 -0.24282,-0.750519 -0.73455,-1.86858 -1.09273,-2.48458 -0.57227,-0.984189 -0.64779,-1.643842 -0.62281,-5.44 0.0333,-5.055226 0.47125,-7.220556 1.9215,-9.499646 1.17556,-1.8474 1.86938,-2.340355 3.29398,-2.340355 1.30881,0 2.60359,-0.620689 3.50454,-1.6799997 0.41165,-0.484 0.87325,-0.88 1.02579,-0.88 0.15254,0 0.82374,-0.373192 1.49155,-0.829316 1.03231,-0.705081 1.47338,-0.808374 2.9443,-0.689519 1.74853,0.141288 3.09991,-0.273382 3.85465,-1.18279 0.20466,-0.24659 0.97581,-0.546801 1.71368,-0.667136 0.73787,-0.120335 1.6617,-0.513049 2.05296,-0.872699 0.63155,-0.580526 0.9727,-0.630717 3.04,-0.447256 4.17095,0.37015 6.43325,1.525384 9.81909,5.014083 2.4703,2.5453427 3.64059,4.6491637 5.15918,9.2746337 0.37559,1.144 0.97879,2.39828 1.34046,2.787289 0.52033,0.559679 0.61641,0.960378 0.4604,1.92 -0.47012,2.891751 -0.8766,3.99605 -2.88518,7.838365 -1.16894,2.236109 -2.12534,4.276506 -2.12534,4.534212 0,0.517277 -3.0949,4.040134 -3.54934,4.040134 -0.15681,0 -0.97037,0.503072 -1.80789,1.11794 -3.2672,2.398611 -4.17938,2.964688 -6.91615,4.291987 -2.58512,1.253754 -3.1068,1.389222 -5.95392,1.546109 -2.15568,0.118784 -3.1901,0.0594 -3.34551,-0.192042 z m 2.69281,-4.459994 c 0,-0.1408 -0.15955,-0.415552 -0.35456,-0.610563 -0.19548,-0.195485 -0.30213,-1.01384 -0.23769,-1.824 l 0.11687,-1.469437 h -1.29831 c -1.63985,0 -2.06631,-0.432256 -2.06631,-2.094403 0,-1.421494 0.28887,-1.78688 2.24,-2.833408 1.54849,-0.830558 5.10232,-3.491937 5.11203,-3.82827 0.008,-0.280107 1.17722,-1.818434 2.48797,-3.273656 0.396,-0.439645 0.72,-0.91449 0.72,-1.055213 0,-0.140722 0.288,-0.516495 0.64,-0.83505 0.352,-0.318556 0.64,-0.911764 0.64,-1.318242 0,-0.406477 0.36,-1.383871 0.8,-2.171986 0.44,-0.788115 0.8,-1.59539 0.8,-1.793945 0,-0.198554 0.59854,-1.070842 1.3301,-1.938418 1.16832,-1.38556 1.47967,-1.577409 2.56,-1.577409 0.67644,0 1.2299,-0.132952 1.2299,-0.295448 0,-0.715924 -2.65728,-3.397357 -5.17202,-5.2190207 -1.35274,-0.979928 -2.85811,-1.22242 -3.98922,-0.642604 -0.32932,0.16881 -1.04892,0.392042 -1.59911,0.496071 -1.38876,0.26258 -3.95965,2.0574887 -3.95965,2.7644897 0,1.009752 -0.87717,1.389372 -3.2896,1.423667 -1.80166,0.02561 -2.40247,0.156153 -2.72854,0.592844 -0.22997,0.308 -0.67826,0.560001 -0.9962,0.560001 -0.31794,0 -1.2501,0.718459 -2.07148,1.596576 -1.44831,1.548366 -1.47806,1.620003 -0.98505,2.372431 0.94992,1.449764 2.56922,1.963419 5.83087,1.849612 1.42531,-0.04973 1.68,-0.152126 1.68,-0.675394 0,-1.027964 1.49739,-1.943225 3.17916,-1.943225 1.80583,0 2.26084,0.395497 2.26084,1.965114 0,0.658413 0.144,1.286112 0.32,1.394886 0.176,0.108774 0.32,0.831066 0.32,1.605093 0,1.353976 -0.0832,1.474559 -2.19538,3.181114 -1.20747,0.975586 -2.27307,1.773793 -2.368,1.773793 -0.0949,0 -0.66272,0.490103 -1.26173,1.089117 -0.89057,0.89057 -1.42604,1.131213 -2.93729,1.320031 -4.14771,0.518224 -6.27759,-0.467641 -6.27759,-2.905746 0,-1.511297 0.36635,-1.953541 1.76,-2.124611 0.82663,-0.101467 0.71655,-0.173774 -0.79228,-0.520439 -0.96375,-0.221429 -2.06792,-0.699135 -2.45372,-1.061568 l -0.70144,-0.658968 0.15034,1.391092 c 0.0827,0.765101 0.4201,1.967092 0.74981,2.671092 0.3297,0.704 0.83021,1.784 1.11223,2.4 0.28202,0.616 0.68878,1.403121 0.90391,1.749157 2.0476,3.293493 3.20599,4.939342 3.9685,5.638482 1.04705,0.960045 3.71343,2.532361 4.29443,2.532361 0.681,0 1.56821,1.02378 1.56821,1.809597 0,0.453693 0.1898,0.750403 0.48,0.750403 0.264,0 0.48,-0.1152 0.48,-0.256 z m 14.00495,-8.064 c 0.40679,0 1.00862,-0.901005 2.08399,-3.12 0.83162,-1.716 1.51181,-3.250408 1.51155,-3.409795 -2.7e-4,-0.159387 0.36728,-0.771959 0.81677,-1.361271 0.74123,-0.971806 0.77383,-1.133479 0.35039,-1.738018 l -0.46686,-0.666541 -0.21584,0.747813 c -0.3735,1.294077 -1.19593,2.951178 -1.97433,3.978017 -0.41284,0.544613 -0.75062,1.11317 -0.75062,1.263461 0,0.57804 -2.93528,4.609614 -5.01241,6.884481 l -2.17481,2.381853 2.6301,-2.48 c 1.44656,-1.364 2.88749,-2.48 3.20207,-2.48 z m -2.68285,-7.21662 c 0.10928,-0.284776 0.0556,-0.413223 -0.12576,-0.301115 -0.17398,0.107528 -0.31634,0.331007 -0.31634,0.49662 0,0.460299 0.22937,0.358868 0.4421,-0.195505 z m -17.64209,-0.99531 c -0.22,-0.08877 -0.58,-0.08877 -0.8,0 -0.22,0.08877 -0.04,0.161403 0.4,0.161403 0.44,0 0.61999,-0.07263 0.4,-0.161403 z m 19.68224,-2.532495 c -0.31494,-0.314938 -0.88225,0.16854 -0.88225,0.751882 0,0.488471 0.0421,0.487595 0.54096,-0.01127 0.29752,-0.297524 0.4511,-0.630801 0.34129,-0.740615 z"
       id="path74"
       clip-path="url(#clipPath196)" />
  </g>
</svg>
