<?xml version="1.0" encoding="UTF-8" standalone="no"?>
<svg
   xmlns:dc="http://purl.org/dc/elements/1.1/"
   xmlns:cc="http://creativecommons.org/ns#"
   xmlns:rdf="http://www.w3.org/1999/02/22-rdf-syntax-ns#"
   xmlns:svg="http://www.w3.org/2000/svg"
   xmlns="http://www.w3.org/2000/svg"
   viewBox="0 0 211.2 118.72"
   height="118.72"
   width="211.2"
   id="svg233"
   version="1.1">
  <metadata
     id="metadata239">
    <rdf:RDF>
      <cc:Work
         rdf:about="">
        <dc:format>image/svg+xml</dc:format>
        <dc:type
           rdf:resource="http://purl.org/dc/dcmitype/StillImage" />
        <dc:title></dc:title>
      </cc:Work>
    </rdf:RDF>
  </metadata>
  <defs
     id="defs237" />
  <path
     id="path243"
     d="m 145.0739,110.74451 -0.96,-0.56736 0.0997,-4.12926 c 0.0895,-3.70589 0.44378,-6.252186 1.35897,-9.766372 0.51591,-1.980989 0.37979,-12.595684 -0.17865,-13.932231 -0.57575,-1.377958 -0.63117,-3.991469 -0.096,-4.526643 0.61445,-0.614451 3.58454,-0.485949 4.18832,0.18121 0.74467,0.822851 1.22854,4.399177 1.29203,9.549507 l 0.0557,4.514717 0.96,-0.314141 c 0.528,-0.172775 1.54946,-0.467911 2.26992,-0.655853 1.14006,-0.297402 1.40403,-0.546858 2.03572,-1.923805 0.59396,-1.294707 0.72085,-2.107814 0.69855,-4.476285 -0.0157,-1.669424 0.12117,-3.073024 0.32347,-3.316774 0.20151,-0.242813 1.0048,-0.422576 1.8883,-0.422576 1.27994,0 1.64872,0.141283 2.20081,0.843155 0.55693,0.708019 0.66323,1.294803 0.66323,3.661114 0,1.549878 -0.144,2.906957 -0.32,3.015731 -0.176,0.108774 -0.32,0.459642 -0.32,0.779702 0,0.320064 -0.216,0.761197 -0.48,0.980298 -0.264,0.219101 -0.48,0.747885 -0.48,1.175072 0,0.988877 -0.68785,2.314838 -1.6496,3.179891 -0.85497,0.769021 -4.10563,1.733079 -6.5904,1.954537 -1.23133,0.10974 -1.68,0.2808 -1.68,0.64052 0,0.26994 -0.43571,2.2929 -0.96825,4.495466 -0.53254,2.20257 -0.90825,4.06468 -0.83491,4.13802 0.0733,0.0733 0.43333,-0.28795 0.79998,-0.80286 0.48683,-0.68371 1.03138,-0.99453 2.01903,-1.15246 0.74382,-0.11895 1.50354,-0.33688 1.68827,-0.48431 0.18473,-0.14742 0.83988,-0.35204 1.45588,-0.4547 5.65818,-0.94301 6.97855,-1.20314 8.27299,-1.62989 0.81785,-0.26963 2.58684,-0.64168 3.93107,-0.82679 1.34424,-0.18511 2.92729,-0.475146 3.51789,-0.644526 0.5906,-0.16938 2.11028,-0.30797 3.37705,-0.30797 1.26678,0 2.39223,-0.144 2.501,-0.32 0.10877,-0.176 0.69697,-0.32 1.3071,-0.32 h 1.10934 l -0.50978,-0.9858 c -1.60259,-3.09907 -1.88732,-4.706565 -1.85235,-10.45797 0.0235,-3.869388 0.15196,-5.6664 0.42882,-6 0.60371,-0.727427 3.27639,-0.632352 3.97668,0.14146 0.49373,0.545564 0.53375,1.059344 0.34274,4.4 -0.25186,4.404716 0.0697,6.033475 1.90005,9.625072 0.76955,1.510038 1.66481,2.706568 2.59602,3.469618 1.27686,1.046286 1.42138,1.303226 1.42138,2.526986 0,1.94889 -0.46145,2.21408 -3.3908,1.94863 -3.01169,-0.27291 -10.60218,0.72909 -21.8892,2.88954 -1.32,0.25266 -3.1336,0.59806 -4.03023,0.76755 -2.48007,0.46883 -4.05488,1.10514 -6.68195,2.69988 -2.6674,1.61922 -4.09796,1.82778 -5.76782,0.8409 z m -23.04,-0.0259 c -0.10877,-0.176 -0.73323,-0.32 -1.38768,-0.32 -0.65445,0 -1.52177,-0.23244 -1.92738,-0.51654 -0.65716,-0.46029 -1.10916,-0.47294 -4.1512,-0.11611 -6.03326,0.70769 -6.13223,0.71227 -6.62139,0.3063 -0.28,-0.23238 -0.47235,-0.94226 -0.47235,-1.74324 0,-1.53301 0.3813,-1.97011 2.53183,-2.90234 1.20901,-0.52409 2.15482,-0.60792 6.58358,-0.5835 l 5.17175,0.0285 0.39169,-4.995486 c 0.21543,-2.74752 0.51604,-5.571964 0.66802,-6.27654 0.15198,-0.70458 0.59317,-3.08105 0.9804,-5.28105 0.38725,-2.2 0.82205,-4.288 0.96623,-4.64 0.14419,-0.352 0.32096,-1.374854 0.39284,-2.273014 l 0.13068,-1.633012 -2.26851,0.434919 c -5.28465,1.013174 -6.50279,1.145808 -8.96033,0.975609 -2.32984,-0.161353 -3.92136,-0.515132 -5.30818,-1.179955 -0.62612,-0.30015 -0.82725,-3.073347 -0.27147,-3.743017 0.31806,-0.383242 0.82288,-0.447012 2.33855,-0.295408 6.3568,0.63583 8.87306,0.460355 13.29292,-0.927012 2.42585,-0.761459 5.32566,-0.972368 5.97377,-0.434486 0.42283,0.350922 0.47503,0.868861 0.30737,3.050058 -0.23305,3.031936 -1.04217,7.154352 -1.49262,7.604793 -0.16968,0.16969 -0.30833,0.963725 -0.30809,1.764525 3.2e-4,1.236134 -1.05565,9.437616 -2.23806,17.381936 -0.1773,1.19127 -0.32237,2.99847 -0.32237,4.016 0,1.01753 -0.1728,2.02286 -0.384,2.23406 -0.46365,0.46365 -3.33757,0.51451 -3.616,0.064 z m -34.016002,-8.704 c -0.806314,-0.80631 -0.33272,-7.172978 0.673645,-9.055996 0.188125,-0.352 0.523309,-1.504 0.744854,-2.56 0.221546,-1.056 0.713994,-2.928 1.094333,-4.16 0.380336,-1.232 0.878166,-3.104 1.106288,-4.16 0.228125,-1.056 0.514707,-2.367821 0.636858,-2.915155 l 0.222086,-0.995159 -2.031034,-0.260355 c -1.117065,-0.143197 -4.942995,-0.271376 -8.50206,-0.284845 l -6.471031,-0.02449 -0.189635,1.44 c -0.104301,0.792 -0.463987,2.664 -0.799302,4.16 -0.335312,1.496 -0.747028,3.691123 -0.914922,4.878051 -0.167894,1.186925 -0.511382,2.571229 -0.763309,3.076231 -0.251926,0.504998 -0.931011,2.773875 -1.509078,5.041948 -0.578067,2.26807 -1.192563,4.30377 -1.365546,4.52377 -0.450185,0.57255 -2.947737,0.5085 -3.44304,-0.0883 -0.733155,-0.8834 -0.181705,-6.206334 1.08049,-10.429585 1.169149,-3.911913 3.033347,-13.029235 3.408771,-16.671437 0.273539,-2.653766 0.637197,-3.130678 2.387219,-3.130678 1.499978,0 2.410413,0.704502 2.410413,1.865197 0,0.502406 0.199373,0.699286 0.72,0.710992 0.396,0.0089 2.406464,0.07611 4.467699,0.149347 2.220061,0.07888 3.825629,0.0071 3.938883,-0.176189 0.284352,-0.460089 3.009348,-0.348131 4.473418,0.183792 0.704,0.255776 2.648,0.630784 4.32,0.833354 3.489056,0.422713 4.160195,0.823357 4.159562,2.483104 -6.4e-4,1.552893 -0.844631,6.257725 -1.2628,7.039085 -0.18522,0.346083 -0.336762,0.93687 -0.336762,1.31286 0,0.375988 -0.490781,2.221456 -1.090621,4.101037 -0.59984,1.879581 -1.170649,3.777421 -1.268464,4.217421 -0.667456,3.002435 -2.234048,8.5486 -2.508281,8.88 -0.422263,0.51029 -2.882727,0.52191 -3.388634,0.016 z M 4.4339021,101.34447 c -0.71882,-0.36366 -0.8,-0.59862 -0.8,-2.315276 v -1.91055 l 4.57024,-2.275923 c 3.3152099,-1.650938 5.2923899,-2.424352 7.1999999,-2.816432 1.44637,-0.29728 3.99776,-0.952631 5.66976,-1.45633 1.672,-0.503702 4.768,-1.1536 6.88,-1.444217 2.112,-0.290618 4.272,-0.657991 4.8,-0.816388 0.528,-0.158396 2.15429,-0.386332 3.61398,-0.506524 2.92061,-0.24049 3.03894,-0.329677 3.37645,-2.544922 0.39905,-2.619184 -1.42793,-10.271056 -2.59577,-10.871757 -1.35613,-0.697555 -1.67466,-1.180125 -1.67466,-2.537094 0,-1.405527 0.69455,-2.410413 1.66601,-2.410413 0.27259,0 0.6801,-0.222278 0.90556,-0.493952 0.30562,-0.36824 0.90603,-0.470042 2.35919,-0.4 1.66695,0.08035 1.99498,0.198221 2.26512,0.813952 0.215258,0.490656 0.590836,0.72 1.179076,0.72 0.474758,0 1.844614,0.203923 3.044118,0.453162 1.199508,0.249238 4.412922,0.620096 7.140922,0.824128 4.85455,0.363081 6.531235,0.764108 7.357558,1.759769 0.303482,0.365674 0.361076,1.556631 0.228538,4.725907 -0.154438,3.693034 -0.320502,4.673732 -1.293408,7.638324 -0.613917,1.870707 -1.32617,3.814707 -1.582781,4.32 -0.256608,0.505289 -0.788806,1.85471 -1.182659,2.99871 -1.1152,3.239254 -1.366486,3.52 -3.150624,3.52 -0.840742,0 -1.701424,-0.1728 -1.912624,-0.384 -0.890886,-0.890886 -0.301814,-4.543165 1.383216,-8.576 0.477997,-1.144 1.071917,-2.8 1.319824,-3.68 1.177952,-4.181386 1.354054,-4.887942 1.523853,-6.114061 l 0.181977,-1.314057 -2.156435,-0.227568 c -1.186038,-0.125162 -3.668435,-0.352573 -5.516435,-0.505357 -1.848,-0.152784 -3.92249,-0.381543 -4.609981,-0.508355 l -1.249981,-0.230564 0.204266,1.089981 c 0.112342,0.599491 0.422666,2.169981 0.689603,3.489981 0.505399,2.499203 0.631511,6.529731 0.283706,9.067258 -0.140515,1.025171 -0.534269,1.86431 -1.287975,2.744848 l -1.085584,1.268259 -3.43202,0.13744 c -1.88762,0.07559 -4.44003,0.377705 -5.67203,0.671366 -1.232,0.293661 -3.392,0.72281 -4.8,0.953661 -1.408,0.230854 -4,0.810749 -5.76,1.288659 -1.76,0.477907 -4.064,1.092619 -5.12,1.366019 -1.056,0.27341 -2.58749,0.84031 -3.40331,1.2598 -0.81582,0.41948 -1.65172,0.76269 -1.85755,0.76269 -0.8451,0 -3.1652499,1.310086 -3.6615299,2.067496 -0.43218,0.6596 -0.78691,0.81161 -1.88499,0.80778 -0.74394,-0.003 -1.71262,-0.18684 -2.15262,-0.40945 z m 4.224,-14.689826 c -0.222,-0.22199 -0.384,-1.285514 -0.384,-2.520819 0,-2.571152 0.29733,-2.907575 2.7494899,-3.110925 2.32296,-0.192637 3.01051,0.383066 3.01051,2.520787 0,1.174682 -0.19067,1.752445 -0.82845,2.510403 -0.72992,0.867466 -1.02676,0.984554 -2.496,0.984554 -0.9171499,0 -1.8403499,-0.1728 -2.0515499,-0.384 z M 23.963512,77.930231 c -0.97198,-1.171161 -1.2449,-9.788733 -0.34438,-10.873795 0.55129,-0.664269 3.61982,-0.686461 4.16454,-0.03011 0.56781,0.684179 0.33382,10.118573 -0.26896,10.843872 -0.56206,0.67631 -3.00546,0.717619 -3.5512,0.06004 z M 10.276662,69.998644 C 10.091152,69.763521 9.8797321,64.837738 9.7637521,58.048532 l -0.19731,-11.550115 0.7343499,-0.689885 c 0.97318,-0.914253 3.69339,-0.97777 4.48351,-0.104691 0.6165,0.681222 0.72464,3.251763 0.16053,3.815872 -0.26349,0.263491 -0.34884,2.734022 -0.29834,8.636278 0.0688,8.039971 -0.16431,10.751715 -1.01796,11.842653 -0.17215,0.22 -0.92573,0.4 -1.67463,0.4 -0.7489,0 -1.50366,-0.18 -1.67724,-0.4 z m 150.413998,-24 c -0.36014,-0.396 -1.06924,-1.368 -1.57578,-2.16 -0.50654,-0.792 -1.02549,-1.486835 -1.15322,-1.54408 -0.12774,-0.05725 -1.15267,-1.281245 -2.27763,-2.72 -1.12496,-1.438755 -3.18045,-3.866358 -4.56776,-5.394669 -2.83328,-3.121261 -5.15617,-5.96111 -5.87872,-7.187037 -0.71398,-1.211385 -2.68231,-3.314214 -3.10223,-3.314214 -0.2102,0 -0.43869,0.779109 -0.53961,1.84 -0.2666,2.802697 -1.06169,8.71607 -1.66725,12.4 -0.11572,0.704 -0.35497,1.46 -0.53166,1.68 -0.52594,0.654842 -2.93484,0.498198 -3.5974,-0.233926 -0.53299,-0.588944 -0.54626,-0.923856 -0.187,-4.72 0.21269,-2.247341 0.59253,-5.624266 0.8441,-7.50428 0.66717,-4.98583 0.62193,-5.840381 -0.3426,-6.472368 -0.66853,-0.438039 -0.8,-0.775386 -0.8,-2.052803 0,-0.840743 0.1728,-1.701423 0.384,-1.912623 0.44598,-0.445976 3.9718,-0.523849 4.23771,-0.0936 0.0987,0.159722 1.00721,0.547249 2.01889,0.861172 2.70933,0.840708 4.7399,2.551291 7.73686,6.517657 1.4673,1.941922 2.77032,3.530767 2.89559,3.530767 0.34481,0 1.28695,-1.120885 1.28695,-1.531115 0,-0.198397 0.432,-1.093395 0.96,-1.988885 0.528,-0.89549 0.96,-1.762347 0.96,-1.926348 0,-0.164001 0.28746,-0.769664 0.6388,-1.345918 0.43711,-0.71692 0.63918,-1.613758 0.64,-2.840411 0.002,-2.610969 0.94878,-3.933598 2.90869,-4.062278 2.05342,-0.134819 2.58759,0.546298 2.77088,3.533128 0.1396,2.274855 0.12004,2.347778 -0.96677,3.60459 -0.67164,0.776706 -1.19469,1.78664 -1.32582,2.56 -0.32689,1.927768 -2.13678,5.364709 -3.06578,5.821855 -2.08848,1.027708 -0.8749,4.255382 1.6,4.255382 1.73578,0 2.88,1.382832 2.88,3.480582 0,1.335696 0.18608,1.742397 1.6,3.49706 1.46855,1.82246 1.6,2.12478 1.6,3.679971 0,0.931913 -0.1728,1.867187 -0.384,2.078387 -0.2112,0.2112 -1.0501,0.384 -1.86422,0.384 -1.12769,0 -1.63616,-0.171472 -2.13502,-0.72 z m 32.60724,-3.824 c -0.2112,-0.2112 -0.384,-1.058381 -0.384,-1.882627 0,-1.394807 0.0976,-1.573261 1.40899,-2.576 1.01952,-0.779562 1.4569,-1.368963 1.5823,-2.132247 0.32325,-1.967587 1.55963,-5.655724 2.68262,-8.002259 0.61517,-1.285423 1.05273,-2.402897 0.97235,-2.483274 -0.0804,-0.08038 -1.23429,0.07889 -2.56424,0.353932 -1.77309,0.366683 -3.64296,0.464142 -7.01006,0.365368 -9.18836,-0.269539 -11.79196,-1.303838 -11.79196,-4.684448 0,-2.091417 1.35053,-3.59937 4.83694,-5.400734 1.47568,-0.762459 3.61906,-2.045007 4.76306,-2.850107 1.144,-0.8051 2.512,-1.554602 3.04,-1.66556 0.70624,-0.148416 0.98868,-0.410073 1.0685,-0.989893 0.0597,-0.4334829 0.67634,-1.5441509 1.37037,-2.4681509 1.17706,-1.5671011 1.35364,-1.68 2.62749,-1.68 1.76928,0 2.13364,0.412306 2.13364,2.414404 0,1.240007 -0.15798,1.7893709 -0.64,2.2255959 -0.352,0.318556 -0.64,0.759929 -0.64,0.980829 0,0.450492 -4.53636,4.619171 -5.02658,4.619171 -0.17282,0 -0.58855,0.307874 -0.92382,0.684165 -0.33528,0.376291 -1.0416,0.884879 -1.5696,1.130195 -0.528,0.245316 -1.392,0.727912 -1.92,1.072436 -0.528,0.344523 -1.284,0.79505 -1.68,1.00117 -0.396,0.20612 -0.72,0.473703 -0.72,0.59463 0,0.120927 1.764,0.310554 3.92,0.421396 3.70269,0.190357 5.68482,0.0088 6.68226,-0.612039 0.24075,-0.149859 1.31572,-0.363981 2.38881,-0.475827 1.07309,-0.111845 2.75617,-0.584229 3.74019,-1.049741 2.15803,-1.020912 4.35075,-1.132353 5.13914,-0.261188 0.80216,0.886376 0.68789,3.01486 -0.22067,4.110251 -0.41265,0.497504 -1.01344,1.624552 -1.3351,2.504552 -0.32166,0.88 -0.68766,1.744 -0.81333,1.92 -0.30894,0.432676 -2.17325,5.02959 -2.9077,7.169674 -0.32791,0.955478 -0.5936,2.616233 -0.5936,3.710403 0,2.153798 -0.54144,3.039923 -1.85746,3.039923 -0.37789,0 -1.15855,0.287462 -1.73481,0.638803 -1.16604,0.710938 -3.42556,0.855367 -4.02373,0.257197 z"
     style="fill:#000000;stroke-width:0.31999999" />
</svg>
